<?xml version="1.0" encoding="utf-8"?>
<!-- Generator: Adobe Illustrator 17.0.0, SVG Export Plug-In . SVG Version: 6.00 Build 0)  -->
<!DOCTYPE svg PUBLIC "-//W3C//DTD SVG 1.1//EN" "http://www.w3.org/Graphics/SVG/1.1/DTD/svg11.dtd">
<svg version="1.1" id="Layer_1" xmlns="http://www.w3.org/2000/svg" xmlns:xlink="http://www.w3.org/1999/xlink" x="0px" y="0px"
	 width="301px" height="112.545px" viewBox="0 0 301 112.545" enable-background="new 0 0 301 112.545" xml:space="preserve">
<path fill-rule="evenodd" clip-rule="evenodd" fill="#4BA4C3" d="M252.473,0.273h-27.798C218.12,0.273,212,5.181,212,11.715v68.86
	L148.523,9.351l0.127,0.082C142.478,3.385,131.423,0,111.192,0c-11.078,0-19.327,1.037-25.604,2.987
	c3.039,3.218,5.541,7.453,5.816,7.994c0.387,0.768,3.357,5.356-0.389,7.103c-3.74,1.748-5.463-1.627-5.463-1.627
	c-1.56-3.064-3.424-5.382-5.19-7.297C73.258,0.152,60.979,0.273,47.58,0.273H11.826C5.307,0.273,0,5.181,0,11.715v89.22
	c0,6.535,5.307,11.338,11.826,11.338H47.58c13.847,0,26.507,0.08,33.484-9.93c1.54-1.783,3.114-3.869,4.443-6.506
	c0,0,1.767-3.339,5.493-1.579c3.732,1.758,0.823,6.385,0.44,7.154c-0.273,0.544-2.71,4.81-5.735,8.038
	c6.299,2.016,14.281,3.095,25.488,3.095c45.037,0,44.808-16.976,44.808-42.583V52.708l41.302,46.639
	c8.463,7.303,14.831,11.388,24.092,12.686c1.004,0.272,2.184,0.24,3.281,0.24h27.798c29.377,0,48.527-10.213,48.527-42.656V43.258
	C301,10.587,281.85,0.273,252.473,0.273z M47.787,92.272H23v-25h24.787c6.942,0,15.452,2.463,15.452,12.388
	C63.239,90.711,54.729,92.272,47.787,92.272z M47.787,46.272H23v-23h24.787c6.942,0,15.452,0.662,15.452,11.166
	C63.239,44.944,54.729,46.272,47.787,46.272z M133,71.505c0,15.672-2.348,20.973-22.225,20.973C90.916,92.478,89,87.177,89,71.505
	V43.04c0-15.67,1.916-21.188,21.775-21.188C130.652,21.852,133,27.37,133,43.04V71.505z M277,71.073
	c0,13.104-9.37,21.199-24.085,21.199H236v-69h16.915c15.849,0,24.085,6.226,24.085,18.882V71.073z"/>
</svg>
