<?xml version="1.0" encoding="utf-8"?>
<!-- Generator: Adobe Illustrator 17.0.0, SVG Export Plug-In . SVG Version: 6.00 Build 0)  -->
<!DOCTYPE svg PUBLIC "-//W3C//DTD SVG 1.1//EN" "http://www.w3.org/Graphics/SVG/1.1/DTD/svg11.dtd">
<svg version="1.1" id="Layer_x5F_1" xmlns="http://www.w3.org/2000/svg" xmlns:xlink="http://www.w3.org/1999/xlink" x="0px"
	 y="0px" width="292px" height="333px" viewBox="0 0 292 333" enable-background="new 0 0 292 333" xml:space="preserve">
<path fill-rule="evenodd" clip-rule="evenodd" fill="#C32032" d="M158,7c0,5-6,7-7,7c-4,0-7-3-7-7s3-7,7-7C156,0,158,5,158,7z
	 M152,41c8,38,42,179,46,179c2,0,6-2,10-2v-5L165,42h3c7,1,14,3,20,6c9,32,16,64,24,96c5,22,12,45,18,68c3-1,7-2,11-2c0,0,0-1,1-2
	L203,52c66,28,89,87,89,134c0,83-66,147-146,147C63,333,0,264,0,186c0-27,12-71,34-93c13,51,25,103,38,154c0,1,1,3,4,3c0,0,7-2,9-5
	l-23-96c6-1,13-3,20-5c8,32,16,65,24,97c1,1,0,1,2,1c3,0,8-2,11-4L74,60c7-4,15-8,22-10c0,3-1,7-1,10c0,26,22,112,25,123
	c3,12,7,25,14,36c8,12,11,15,22,15c9,0,17-7,20-22v-19c-2-4-4-30-9-30c-4,0-9,2-9,5c0,2,5,32,5,34c0,6-1,19-8,19s-12-11-14-16
	c-4-12-8-23-11-34c-6-24-12-48-17-72c-3-13-5-37-5-40c0-7,0-15,8-15c6,0,12,15,14,19c3,7,5,15,8,23c3-1,7-2,11-2c0,0,1,0,1-2
	c0-7-13-36-17-41H152z M79,132c-7,2-14,3-21,5L45,83c1-4,12-13,18-16L79,132z M252,240c0,6-6,8-8,8c-7,0-7-6-7-8c0-5,2-7,7-7
	S252,238,252,240z"/>
</svg>
