<?xml version="1.0" encoding="utf-8"?>
<!-- Generator: Adobe Illustrator 16.0.0, SVG Export Plug-In . SVG Version: 6.00 Build 0)  -->
<!DOCTYPE svg PUBLIC "-//W3C//DTD SVG 1.1//EN" "http://www.w3.org/Graphics/SVG/1.1/DTD/svg11.dtd">
<svg version="1.1" id="图层_1" xmlns="http://www.w3.org/2000/svg" xmlns:xlink="http://www.w3.org/1999/xlink" x="0px" y="0px"
	 width="107.5px" height="92.497px" viewBox="52 -112 107.5 92.497" enable-background="new 52 -112 107.5 92.497"
	 xml:space="preserve">
<g id="Book">
	<path fill="#555555" d="M418.855-219.682v-7.447c0-1.201-0.974-2.174-2.175-2.174h-8.696c-1.201,0-2.174,0.973-2.174,2.174v6.564
		c-8.853,0.309-17.683,2.5-21.64,6.375c-4.317-4.193-14.389-6.416-24.014-6.416c-12.963,0-26.086,3.734-26.086,10.869v65.228
		c0,1.201,0.974,2.174,2.174,2.174c0.037,0,0.07-0.02,0.107-0.021c0.038,0.002,0.069,0.021,0.108,0.021
		c1.201,0,2.174-0.973,2.174-2.174c0-0.191,0.037-0.287,0.175-0.42c1.801-1.799,10.135-1.764,18.17-1.752l3.178,0.006
		c13.068,0,21.738,3.916,21.738,6.504c0,1.201,0.973,2.174,2.174,2.174c0.02,0,0.035-0.01,0.055-0.012
		c0.021,0.002,0.035,0.012,0.055,0.012c1.201,0,2.175-0.973,2.175-2.174v-0.514c1.022-2.561,9.399-5.99,21.631-5.99l3.178-0.006
		c8.164-0.014,16.57-0.045,18.394,1.771c0.131,0.133,0.168,0.221,0.168,0.4c0,1.203,0.973,2.174,2.174,2.174
		c1.203,0,2.176-0.973,2.176-2.174v-65.228C434.072-214.826,427.386-218.174,418.855-219.682z M360.158-151.022l-3.164-0.006
		c-8.258-0.012-14.678-0.014-18.574,1.445v-60.153c0-2.598,8.67-6.523,21.738-6.523c14.139,0,21.849,4.412,21.849,6.68v63.226
		C377.1-149.429,368.607-151.022,360.158-151.022z M411.15-151.028l-3.166,0.006c-8.322,0-16.688,1.545-21.631,4.531v-63.089
		c0-2.508,7.678-6.223,19.457-6.637v15.176c0,1.201,0.973,2.174,2.174,2.174h8.696c1.201,0,2.175-0.973,2.175-2.174v-14.221
		c6.784,1.336,10.868,3.742,10.868,5.525v60.077C425.771-151.054,419.352-151.046,411.15-151.028z"/>
	<path fill="#555555" d="M418.855-190.172h-21.74c-1.203,0-2.174,0.973-2.174,2.174s0.971,2.174,2.174,2.174h21.738
		c1.202,0,2.174-0.973,2.174-2.174S420.056-190.172,418.855-190.172z"/>
	<path fill="#555555" d="M371.029-198.867h-21.74c-1.201,0-2.174,0.973-2.174,2.174c0,1.203,0.973,2.174,2.174,2.174h21.738
		c1.203,0,2.174-0.971,2.174-2.174C373.201-197.894,372.23-198.867,371.029-198.867z"/>
	<path fill="#555555" d="M371.029-164.085h-21.74c-1.201,0-2.174,0.973-2.174,2.174s0.973,2.174,2.174,2.174h21.738
		c1.203,0,2.174-0.973,2.174-2.174S372.23-164.085,371.029-164.085z"/>
	<path fill="#555555" d="M371.029-181.476h-21.74c-1.201,0-2.174,0.973-2.174,2.174c0,1.203,0.973,2.174,2.174,2.174h21.738
		c1.203,0,2.174-0.971,2.174-2.174C373.201-180.504,372.23-181.476,371.029-181.476z"/>
	<path fill="#555555" d="M371.029-190.172h-21.74c-1.201,0-2.174,0.973-2.174,2.174s0.973,2.174,2.174,2.174h21.738
		c1.203,0,2.174-0.973,2.174-2.174S372.23-190.172,371.029-190.172z"/>
	<path fill="#555555" d="M371.029-172.779h-21.74c-1.201,0-2.174,0.971-2.174,2.174c0,1.202,0.973,2.173,2.174,2.173h21.738
		c1.203,0,2.174-0.971,2.174-2.173C373.201-171.808,372.23-172.779,371.029-172.779z"/>
	<path fill="#555555" d="M418.855-172.779h-21.74c-1.203,0-2.174,0.971-2.174,2.174c0,1.202,0.971,2.173,2.174,2.173h21.738
		c1.202,0,2.174-0.971,2.174-2.173C421.027-171.808,420.056-172.779,418.855-172.779z"/>
	<path fill="#555555" d="M418.855-181.476h-21.74c-1.203,0-2.174,0.973-2.174,2.174c0,1.203,0.971,2.174,2.174,2.174h21.738
		c1.202,0,2.174-0.971,2.174-2.174C421.027-180.504,420.056-181.476,418.855-181.476z"/>
</g>
<g>
	<rect x="915.559" y="-344.897" fill="none" width="126" height="72"/>
	<text transform="matrix(1 0 0 1 915.5586 -326.875)" fill="#545E64" font-family="'Lato-Regular'" font-size="21">Literature </text>
	<text transform="matrix(1 0 0 1 915.5586 -301.6748)" fill="#545E64" font-family="'Lato-Regular'" font-size="21">review</text>
</g>
<path fill="#555555" d="M96.035-76.533c0-0.994,1.067-1.015,1.067,0c0,0.875,0,2.658,0,4.429h15.78c0-1.86,0-3.562,0-5.037
	c1.823,1.864,4.926,5.016,4.952,5.037h3.865c0.096-0.08,4.566-4.543,7-6.977c2.239-2.239-0.788-5.188-3.412-2.564
	c-0.829,0.83-4.148,4.148-4.745,4.741c-0.59,0.593-1.012,0.487-1.425,0.076c-1.422-1.493-3.931-3.99-7.214-7.174
	c-0.936-0.91-1.859-1.834-4.202-1.834c-0.723,0-5.941,0-8.222,0c-5.291,0-7.576,2.864-7.576,6.596c0,1.878,0,4.255,0,7.139h4.132
	C96.035-74.206,96.035-75.787,96.035-76.533z"/>
<circle fill="#555555" cx="105.101" cy="-93.341" r="4.939"/>
<path fill="#555555" d="M100.201-58.107c-1.711,0-3.102,1.391-3.102,3.104v14.6c0,1.712,1.387,3.104,3.102,3.104
	s3.102-1.391,3.102-3.104c0-0.003-0.002-0.008-0.002-0.01l0.002-14.589C103.303-56.716,101.911-58.107,100.201-58.107z"/>
<path fill="#555555" d="M109.788-58.107c-1.713,0-3.105,1.391-3.105,3.104v14.6c0,1.712,1.393,3.104,3.105,3.104
	s3.102-1.391,3.102-3.104c0-0.003,0-0.008,0-0.01v-14.589C112.89-56.716,111.501-58.107,109.788-58.107z"/>
<polygon fill="#555555" points="75.035,-64.578 73.726,-62.659 73.726,-59.508 136.689,-59.512 136.689,-62.659 135.404,-64.535 
	133.311,-63.438 134.229,-62.057 134.229,-61.874 76.134,-61.874 76.134,-62.057 77.083,-63.479 "/>
<path fill="#555555" d="M82.109-72.512l0.3,0.451l0.197,0.296l1.166,1.759h1.753c0,0,0.024,0,0.039,0l-1.667-2.506l-0.806-1.212
	l-0.516-0.777l-0.148-0.223l-0.004,0.002l-1.239,0.822L82.109-72.512z"/>
<polygon fill="#555555" points="80.349,-75.136 80.507,-74.895 81.757,-75.725 81.598,-75.966 81.444,-76.2 81.259,-76.475 
	80.009,-75.645 80.191,-75.37 "/>
<path fill="#555555" d="M54.118-70.673c-0.405,0-0.839,0.079-1.267,0.205l1.984,18.303v18.889h3.149v-18.889
	c-0.888-7.821-1.722-15.312-2.099-17.196C55.693-70.328,54.972-70.673,54.118-70.673z"/>
<path fill="#555555" d="M80.3-56.333c-0.669-1.46-0.99-2.068-3.552-2.068c0,0-2.613,0.008-3.562,0.008
	c-0.951,0-1.708-0.408-1.64-2.019c0.071-1.673-0.292-4.986-0.176-7.441l5.957,3.234l8.129-0.004c0.479,0,0.869-0.107,1.194-0.275
	c0.188-0.099,0.352-0.21,0.488-0.348c0.137-0.14,0.25-0.292,0.338-0.459c0.03-0.054,0.055-0.11,0.08-0.169
	c0.188-0.447,0.218-0.954,0.098-1.429c-0.049-0.188-0.12-0.371-0.215-0.54c-0.027-0.054-0.054-0.102-0.083-0.153
	c-0.113-0.169-0.255-0.325-0.418-0.46c-0.165-0.14-0.355-0.26-0.574-0.347c-0.268-0.108-0.569-0.17-0.907-0.17l-7.021-0.002
	l-8.062-6c-0.919-0.665-2.103-1-3.31-1c-2.742,0-5.602,1.74-5.769,5.299c0,0-0.663,14.312-0.758,16.672
	c-0.095,2.37,1.756,3.298,4.319,3.298c2.564,0,8.543,0,9.613,0c1.066,0,1.452,0.163,1.944,1.466
	c0.492,1.299,4.513,11.939,5.379,14.24c0.6,1.465,1.788,2.069,2.969,2.069c1.93,0,3.829-1.619,3.033-3.714
	C86.323-40.489,80.971-54.871,80.3-56.333z"/>
<circle fill="#555555" cx="68.346" cy="-82.805" r="4.941"/>
<circle fill="#555555" cx="142.067" cy="-82.805" r="4.941"/>
<path fill="#555555" d="M143.35-75.972c-1.209,0-2.389,0.335-3.311,1l-8.061,5.999l-7.021,0.002c-2.902,0-2.983,4.212,0.188,4.212
	h8.129l5.765-3.092c0.12,2.453-0.243,5.767-0.173,7.439c0.067,1.611-0.688,2.019-1.641,2.019c-0.948,0-3.558-0.006-3.558-0.006
	c-2.563,0-2.885,0.606-3.554,2.066c-0.669,1.462-6.024,15.843-7.492,19.689c-0.798,2.094,1.105,3.714,3.036,3.714
	c1.177,0,2.367-0.602,2.965-2.068c0.862-2.301,4.887-12.943,5.376-14.24c0.491-1.305,0.881-1.465,1.945-1.465
	c1.069,0,7.052,0,9.613,0c2.563,0,4.415-0.93,4.319-3.299c-0.099-2.359-0.76-16.671-0.76-16.671
	C148.954-74.229,146.095-75.972,143.35-75.972z"/>
<path fill="#555555" d="M156.411-70.673c0.405,0,0.842,0.079,1.267,0.205l-2.099,18.303v18.889h-3.148v-18.889
	c0,0,1.929-15.772,2.214-17.196C154.838-70.328,155.558-70.673,156.411-70.673z"/>
<g>
	<polygon fill="#555555" points="81.237,-71.765 81.014,-72.101 80.093,-72.104 78.681,-70.006 81.433,-70.006 81.92,-70.734 	"/>
</g>
<g>
	<path fill="#555555" d="M130.313-70.006h1.366l-1.402-2.099c-0.424,0-0.877,0-1.362,0h-1.351l1.398,2.099H130.313z"/>
</g>
<g>
	<rect x="1809.222" y="1418.053" fill="none" width="126" height="72"/>
	<text transform="matrix(1 0 0 1 1809.2227 1436.0762)" fill="#545E64" font-family="'Lato-Regular'" font-size="21">Patient </text>
	<text transform="matrix(1 0 0 1 1809.2227 1461.2754)" fill="#545E64" font-family="'Lato-Regular'" font-size="21">interviews</text>
</g>
<g>
	<rect x="3543.659" y="1429.455" fill="none" width="126" height="72"/>
	<text transform="matrix(1 0 0 1 3543.6602 1447.4785)" fill="#545E64" font-family="'Lato-Regular'" font-size="21">Clinician </text>
	<text transform="matrix(1 0 0 1 3543.6602 1472.6777)" fill="#545E64" font-family="'Lato-Regular'" font-size="21">interviews</text>
</g>
<g>
	<g>
		<path d="M1473.339,405.731v-7.476c0-0.805,0.652-1.461,1.459-1.461c0.808,0,1.459,0.656,1.459,1.461v7.476h29.344v-7.476h0.002
			c0-0.805,0.654-1.461,1.459-1.461c0.808,0,1.459,0.656,1.459,1.461v7.476h8.986v-18.229c0-2.064-1.68-3.746-3.746-3.746h-45.666
			c-2.063,0-3.746,1.682-3.746,3.746v18.229H1473.339z"/>
		<path d="M1476.597,368.012c0-7.327,5.959-13.286,13.283-13.286c7.328,0,13.287,5.959,13.287,13.286
			c0,7.324-5.959,13.284-13.287,13.284C1482.556,381.297,1476.597,375.337,1476.597,368.012"/>
	</g>
	<path d="M1574.327,363.302c-0.068,2.133-1.527,3.84-3.33,3.84h-16.728c-1.85,0-3.346-1.785-3.346-3.993v-0.764
		c-1.154,1.969-1.828,4.251-1.828,6.694c0,7.325,5.959,13.285,13.283,13.284c7.328,0,13.287-5.96,13.287-13.284
		C1575.667,367.007,1575.177,365.052,1574.327,363.302z"/>
	<path d="M1545.839,406.798v-7.475c0-0.806,0.652-1.459,1.459-1.459c0.808,0,1.459,0.653,1.459,1.459v7.475h29.344v-7.475h0.002
		c0-0.806,0.654-1.459,1.459-1.459c0.808,0,1.459,0.653,1.459,1.459v7.475h8.986v-18.227c0-2.066-1.68-3.748-3.746-3.748h-45.666
		c-2.063,0-3.746,1.684-3.746,3.748v18.227H1545.839z"/>
	<path d="M1570.165,348.802h-15.563c-1.721,0-3.11,1.787-3.11,3.988v8.979c0,2.208,1.391,3.994,3.11,3.994h15.563
		c1.717,0,3.109-1.787,3.109-3.994v-8.979C1573.271,350.589,1571.882,348.802,1570.165,348.802z M1567.657,358.901h-3.67v4.593
		h-3.214v-4.593h-3.668v-3.777h3.668v-4.054h3.214v4.054h3.67V358.901z"/>
	<path d="M1544.868,317.541c-10.484-8.637-25.043-7.321-36.635-1.703c-7.259,3.518-14.435,14.876-7.757,25.132
		c6.677,10.253,0,14.481,0,14.481c7.58-2.98,19.996,9.246,36.496,1.706C1557.476,347.783,1559.354,329.468,1544.868,317.541z
		 M1529.042,352.388h-6.475v-6.521h6.475V352.388z M1533.145,335.149c-2.423,2.051-4.427,3.028-4.427,6.521v1.305h-5.776
		c0-1.35-0.047-3.168,0.231-4.518c0.886-4.1,3.588-5.312,5.777-7.314c0.883-0.793,1.815-1.862,1.815-3.354
		c0-2.049-1.584-3.914-4.52-3.914c-2.934,0-4.938,1.631-4.938,4.66h-6.011c0-6.523,4.984-9.926,11.181-9.926
		c6.104,0,10.344,4.008,10.344,9.133C1536.823,331.003,1535.286,333.333,1533.145,335.149z"/>
</g>
<g>
	<path d="M93.58,1015.062h-55.4h-5.6v3.399h-3.4c-0.799,0-1.398,0.601-1.398,1.399s0.6,1.399,1.398,1.399h3.4v3.899h-3.4
		c-0.799,0-1.398,0.601-1.398,1.4c0,0.799,0.6,1.399,1.398,1.399h3.4v3.899h-3.4c-0.799,0-1.398,0.601-1.398,1.399
		c0,0.8,0.6,1.399,1.398,1.399h3.4v3.9h-3.4c-0.799,0-1.398,0.6-1.398,1.399s0.6,1.399,1.398,1.399h3.4v3.9h-3.4
		c-0.799,0-1.398,0.6-1.398,1.398c0,0.801,0.6,1.4,1.398,1.4h3.4v3.899h-3.4c-0.799,0-1.398,0.601-1.398,1.399s0.6,1.4,1.398,1.4
		h3.4v3.898h-3.4c-0.799,0-1.398,0.602-1.398,1.4s0.6,1.4,1.398,1.4h3.4v3.898h-3.4c-0.799,0-1.398,0.602-1.398,1.4
		s0.6,1.398,1.398,1.398h3.4v3.9h-3.4c-0.799,0-1.398,0.6-1.398,1.4c0,0.8,0.6,1.398,1.398,1.398h3.4v3.9h-3.4
		c-0.799,0-1.398,0.6-1.398,1.398c0,0.802,0.6,1.4,1.398,1.4h3.4v3.9h-3.4c-0.799,0-1.398,0.6-1.398,1.398c0,0.8,0.6,1.4,1.398,1.4
		h3.4v3.899h-3.4c-0.799,0-1.398,0.601-1.398,1.399s0.6,1.4,1.398,1.4h3.4v3.898h-3.4c-0.799,0-1.398,0.602-1.398,1.4
		s0.6,1.399,1.398,1.399h3.4v3.399h5.6h55.4c4.701,0,8.4-3.8,8.4-8.399v-73.199C101.98,1018.861,98.18,1015.062,93.58,1015.062z
		 M99.18,1096.661c0,3.101-2.5,5.601-5.6,5.601h-52.6v-84.399h52.6c3.1,0,5.6,2.5,5.6,5.601V1096.661L99.18,1096.661z"/>
	<path d="M56.74,1026.262c0,0.801-0.6,1.399-1.4,1.399h-5.6c-0.801,0-1.4-0.601-1.4-1.399s0.6-1.399,1.4-1.399h5.6
		C56.141,1024.861,56.74,1025.462,56.74,1026.262z M93.74,1024.861h-32.9c-0.799,0-1.4,0.601-1.4,1.399c0,0.8,0.602,1.399,1.4,1.399
		h32.9c0.801,0,1.4-0.6,1.4-1.399C95.14,1025.462,94.541,1024.861,93.74,1024.861z M55.34,1033.861h-5.6
		c-0.801,0-1.4,0.601-1.4,1.399c0,0.8,0.6,1.399,1.4,1.399h5.6c0.801,0,1.4-0.6,1.4-1.399
		C56.74,1034.462,56.141,1033.861,55.34,1033.861z M93.74,1033.861h-32.9c-0.799,0-1.4,0.601-1.4,1.399c0,0.8,0.602,1.399,1.4,1.399
		h32.9c0.801,0,1.4-0.6,1.4-1.399C95.14,1034.462,94.541,1033.861,93.74,1033.861z M55.34,1042.861h-5.6
		c-0.801,0-1.4,0.601-1.4,1.399c0,0.8,0.6,1.399,1.4,1.399h5.6c0.801,0,1.4-0.6,1.4-1.399
		C56.74,1043.462,56.141,1042.861,55.34,1042.861z M93.74,1042.861h-32.9c-0.799,0-1.4,0.601-1.4,1.399c0,0.8,0.602,1.399,1.4,1.399
		h32.9c0.801,0,1.4-0.6,1.4-1.399C95.14,1043.462,94.541,1042.861,93.74,1042.861z M55.34,1051.861h-5.6
		c-0.801,0-1.4,0.601-1.4,1.399c0,0.8,0.6,1.399,1.4,1.399h5.6c0.801,0,1.4-0.6,1.4-1.399
		C56.74,1052.462,56.141,1051.861,55.34,1051.861z M93.74,1051.861h-32.9c-0.799,0-1.4,0.601-1.4,1.399c0,0.8,0.602,1.399,1.4,1.399
		h32.9c0.801,0,1.4-0.6,1.4-1.399C95.14,1052.462,94.541,1051.861,93.74,1051.861z"/>
</g>
<g>
	<rect x="980.486" y="3125.188" fill="none" width="66.76" height="72"/>
	<text transform="matrix(1 0 0 1 980.4844 3143.2109)" fill="#545E64" font-family="'Lato-Regular'" font-size="21">Diary </text>
	<text transform="matrix(1 0 0 1 980.4844 3168.4121)" fill="#545E64" font-family="'Lato-Regular'" font-size="21">study</text>
</g>
<g>
	<g id="Your_Icon_14_">
		<path d="M865.39,999.006l-60.182-41.258c-1.949-1.338-4.518-1.338-6.465,0l-60.178,41.258c-2.604,1.785-3.271,5.344-1.484,7.947
			c1.106,1.618,2.9,2.484,4.721,2.484c1.113,0,2.242-0.323,3.23-1.003l6.877-4.715l3.651-2.504v0.125l13.599-9.389
			c-0.013-0.015-0.025-0.021-0.035-0.029l10.906-7.479l19.918-13.758c0.16-0.11,0.342-0.169,0.514-0.252l1.514-1.041l1.517,1.039
			c0.17,0.082,0.346,0.138,0.506,0.245l30.904,21.188l13.491,9.251l3.804,2.604l7.469,5.123c2.506,1.221,5.584,0.478,7.207-1.891
			C868.657,1004.35,867.993,1000.791,865.39,999.006z"/>
		<path d="M836.958,1001.939v1.78v51.097h-21.555v-30.433c0-3.157-2.562-5.717-5.718-5.717h-15.418c-3.157,0-5.719,2.56-5.719,5.717
			v30.436h-21.557v-51.1v-1.591l-2.303,1.591l-9.132,6.308v46.527c0,5.35,4.349,9.698,9.695,9.698h73.441
			c5.348,0,9.696-4.35,9.696-9.698v-46.775l-8.838-6.06L836.958,1001.939z"/>
	</g>
	<g>
		<path d="M898.202,1046.423c0.131,0,0.262-0.013,0.393-0.038c1.24-0.252,2.072-1.628,1.857-3.074
			c-0.383-2.582-2.494-15.652-6.316-19.14c-1.762-1.604-5.069-2.325-8.416-2.325c-3.502,0-7.043,0.79-8.891,2.188
			c-4.119,3.112-6.008,15.588-6.49,19.336c-0.188,1.453,0.672,2.806,1.92,3.022c0.113,0.02,0.228,0.029,0.34,0.029
			c1.109,0,2.084-0.944,2.253-2.265c0.551-4.302,1.596-9.146,2.709-12.329c-0.084,0.54-0.146,1.091-0.146,1.661v7.801
			c0,0.025,0.014,0.046,0.014,0.072c0.009,7.779,0.199,14.939,0.584,21.869c0.097,1.688,1.302,2.981,2.729,2.981
			c0.061,0,0.121-0.003,0.182-0.007c1.51-0.114,2.652-1.634,2.555-3.391c-0.319-5.705-0.497-11.595-0.551-17.855
			c0.799,0.113,1.633,0.171,2.469,0.171c0.822,0,1.646-0.056,2.438-0.166c-0.057,6.285-0.232,12.188-0.553,17.889
			c-0.101,1.761,1.045,3.279,2.549,3.394c0.063,0.004,0.123,0.006,0.186,0.006c1.429,0,2.632-1.293,2.728-2.981
			c0.387-6.861,0.576-13.978,0.586-21.709c0.01-0.094,0.055-0.174,0.055-0.272v-7.801c0-0.35-0.059-0.684-0.088-1.025
			c1.063,3.237,2.066,7.768,2.662,11.757C896.149,1045.51,897.104,1046.423,898.202,1046.423z"/>
		<g>
			<ellipse cx="885.399" cy="1010.663" rx="8.668" ry="8.951"/>
		</g>
	</g>
</g>
<g id="Your_Icon_7_">
	<path fill="#555555" d="M179.683,51.705h26.9c3.502,0,6.367,2.867,6.367,6.375v12.729c0,3.508-2.865,6.377-6.367,6.377h-4.146
		v8.206l-8.205-8.206h-14.549c-3.51,0-6.37-2.869-6.37-6.377V58.08C173.311,54.572,176.179,51.705,179.683,51.705z"/>
	<path fill="#555555" d="M217.351,95.006c-5.076,0-9.194-4.117-9.194-9.192c0-5.083,4.118-9.201,9.194-9.201
		c5.084,0,9.201,4.119,9.201,9.201C226.552,90.888,222.437,95.006,217.351,95.006z"/>
	<path fill="#555555" d="M201.685,127.359c0-2.232,0-14.705,0-18.027c0-6.498,4.537-11.778,10.07-11.778c2.748,0,8.123,0,10.797,0
		c5.533,0,10.471,5.282,10.471,11.778c0,3.322,0,15.797,0,18.027H201.685z"/>
	<path fill="#555555" d="M198.747,99.684l-22.979-0.06l-2.229,5.416c-2.434-2.244-5.506-3.594-8.729-3.594
		c-3.558,0-10.703,0-14.357,0c-7.355,0-13.391,7.027-13.391,15.666c0,4.418,0,21.002,0,23.973h41.671c0-1.362,0-5.606,0-10.223
		l7.181,0.018L198.747,99.684z M187.386,122.227l-8.65-0.021c0-0.24,0-0.477,0-0.705l8.939,0.021L187.386,122.227z M188.53,119.443
		l-9.795-0.027c0-0.244,0-0.479,0-0.705l10.086,0.027L188.53,119.443z M189.675,116.658l-10.951-0.027
		c-0.008-0.235-0.02-0.473-0.035-0.705l11.277,0.029L189.675,116.658z M190.819,113.875l-12.406-0.03
		c-0.047-0.236-0.098-0.476-0.154-0.705l12.852,0.03L190.819,113.875z M191.966,111.092l-14.359-0.036
		c-0.092-0.238-0.188-0.476-0.293-0.707l14.941,0.039L191.966,111.092z M193.11,108.309l-16.904-0.045
		c-0.15-0.24-0.309-0.478-0.471-0.707l17.666,0.047L193.11,108.309z M176.888,101.986l18.803,0.047l-0.291,0.705l-18.803-0.049
		L176.888,101.986z M175.741,104.77l18.805,0.049l-0.291,0.703l-18.803-0.047L175.741,104.77z M178.735,124.285l7.793,0.021
		l-0.289,0.703l-7.504-0.021C178.735,124.754,178.735,124.52,178.735,124.285z"/>
	<path fill="#555555" d="M158.02,98.236c6.764,0,12.235-5.479,12.235-12.229c0-6.759-5.478-12.233-12.235-12.233
		c-6.75,0-12.228,5.476-12.228,12.233C145.792,92.76,151.27,98.236,158.02,98.236z"/>
</g>
<g>
	<rect x="58.728" y="459.07" fill="none" width="126" height="72"/>
	<text transform="matrix(1 0 0 1 58.7285 477.0938)" fill="#545E64" font-family="'Lato-Regular'" font-size="21">Expert </text>
	<text transform="matrix(1 0 0 1 58.7285 502.293)" fill="#545E64" font-family="'Lato-Regular'" font-size="21">interviews</text>
</g>
<g>
	<path fill="#555555" d="M384.072,1.705v100h80v-100H384.072z M461.072,95.705h-74v-91h74V95.705z"/>
	<rect x="393.908" y="67.402" fill="#555555" width="29.014" height="2.169"/>
	<rect x="393.908" y="59.518" fill="#555555" width="29.014" height="2.17"/>
	<rect x="393.908" y="75.286" fill="#555555" width="29.014" height="2.169"/>
	<rect x="393.908" y="83.169" fill="#555555" width="29.014" height="2.169"/>
	<rect x="393.908" y="8.98" fill="#555555" width="47.195" height="3.528"/>
	<polygon fill="#555555" points="452.072,84.705 452.072,51.705 447.072,51.705 447.072,84.705 444.072,84.705 444.072,24.705 
		437.072,24.705 437.072,84.705 431.072,84.705 431.072,85.705 458.072,85.705 458.072,84.705 	"/>
	<g>
		<path fill="#555555" d="M408.5,39.611l3.523-13.327c-1.127-0.297-2.306-0.471-3.523-0.471c-7.621,0-13.799,6.178-13.799,13.799
			S400.879,53.41,408.5,53.41s13.797-6.178,13.797-13.798c0-2.244-0.547-4.356-1.498-6.229L408.5,39.611z"/>
		<path fill="#555555" d="M424.471,28.821c-1.76-3.469-4.938-6.085-8.776-7.098l-3.523,13.327L424.471,28.821z"/>
	</g>
</g>
<g>
	<rect x="2577.051" y="-192.898" fill="none" width="126" height="72"/>
	<text transform="matrix(1 0 0 1 2577.0508 -174.875)" fill="#545E64" font-family="'Lato-Regular'" font-size="21">Domain </text>
	<text transform="matrix(1 0 0 1 2577.0508 -149.6748)" fill="#545E64" font-family="'Lato-Regular'" font-size="21">analysis</text>
</g>
<g>
	<path d="M1586.099-29.117c0,4.784-2.95,9.413-7.577,10.935c-5.117,1.685-10.564-1.011-12.841-5.785
		c-1.159-2.432-1.223-4.992-1.062-7.625c0.182-2.984,0.537-5.963,1.014-8.917c0.496-3.072,1.113-6.151,2.076-9.115
		c0.736-2.27,1.771-5.69,4.086-6.845c2.271-1.262,4.769,1.125,5.519,3.121c-1.105-0.967-1.707-1.674-3.22-2.006
		c-1.67-0.365-2.764,1.044-3.258,2.527v0.011c-1.654,3.881-2.207,8.549-2.309,12.738c-0.084,3.485,2.955,7.427,6.803,6.657
		c-0.309,0.947-0.547,1.958-0.959,2.866c-0.361,0.832-0.732,1.818-0.348,2.711c0.577,1.336,2.565,1.793,3.819,1.282
		c0.767-0.256,1.385-0.819,1.703-1.598l4.549-10.747C1585.341-34.879,1586.099-31.194,1586.099-29.117z"/>
	<circle cx="1548.288" cy="-64.798" r="6.923"/>
	<path d="M1558.271-49.354c-1.396,0-2.53,1.132-2.53,2.53c0,0.584,0.207,1.114,0.539,1.542c-0.025,0.095-0.056,0.188-0.072,0.288
		l-0.851,4.867l-3.077-0.271v-10.287c0-3.236-2.621-5.858-5.857-5.858c-3.053,0-5.562,2.338-5.83,5.321l-4.424,11.095
		c-0.437,1.093,0.271,2.401,1.578,2.922c0.324,0.13,2.815,0.588,2.815,0.588v11.494c0,1.433,0.519,2.743,1.371,3.762l1.293,36.444
		c0,1.619,1.312,2.93,2.929,2.93c1.618,0,2.93-1.311,2.93-2.93l2.66-37.771c0.342-0.741,0.535-1.565,0.535-2.436V-35.59l2.252,0.197
		l-0.109,0.632c-0.11,0.633,0.291,1.229,0.892,1.359c0.602,0.13,1.213-0.248,1.373-0.87l0.248-0.955
		c1.207-0.104,2.192-0.993,2.295-2.158c0.08-0.905-0.402-1.732-1.166-2.207l1.227-4.739c0.016-0.067,0.021-0.134,0.035-0.201
		c0.869-0.4,1.477-1.274,1.477-2.294C1560.802-48.222,1559.669-49.354,1558.271-49.354z"/>
	<circle cx="1570.122" cy="-65.064" r="6.923"/>
	<path d="M1575.319-16.603c0.329,0,0.649-0.011,0.969-0.043l-1.107,31.463c0,1.619-1.311,2.93-2.93,2.93s-2.931-1.311-2.931-2.93
		l-2.479-35.19C1568.991-18.052,1571.997-16.603,1575.319-16.603z"/>
	<path d="M1570.142-56.511c-1.725,1.736-3.034,4.931-4.014,8.562v-3.004C1566.128-53.55,1567.811-55.744,1570.142-56.511z"/>
	<path d="M1583.817-43.411l-5.976-7.381c0.267-2.024-3.697-3.774-4.504-3.621c-1.33,0.251-2.365,4.559-2.428,4.825v0.011l0.01,0.011
		c-0.201,0.778-0.799,3.142-0.959,5.091c-0.021,0.258-0.373,3.11-0.373,4.633c0,2.982,2.258,5.4,5.027,5.4
		c0.147,0,1.363,0,2.354-0.628c0,0-1.197,3.515-1.522,4.708c-0.267,0.98-0.799,2.045,0.17,2.663c0.299,0.19,1.184,0.267,1.692,0.202
		c0.709-0.088,1.066-0.555,1.259-1.076l4.547-10.747c0,0,1.022-2.151,1.076-2.535C1584.288-42.42,1584.171-42.974,1583.817-43.411z
		 M1577.843-37.734v-4.963l1.15,1.417L1577.843-37.734z"/>
</g>
<g>
	<rect x="1514.881" y="105.904" fill="none" width="126" height="72"/>
	<text transform="matrix(1 0 0 1 1514.8809 123.9258)" fill="#545E64" font-family="'Lato-Regular'" font-size="21">Guerilla </text>
	<text transform="matrix(1 0 0 1 1514.8809 149.127)" fill="#545E64" font-family="'Lato-Regular'" font-size="21">interviews</text>
</g>
</svg>
