<?xml version="1.0" encoding="utf-8"?>
<!-- Generator: Adobe Illustrator 16.0.0, SVG Export Plug-In . SVG Version: 6.00 Build 0)  -->
<!DOCTYPE svg PUBLIC "-//W3C//DTD SVG 1.1//EN" "http://www.w3.org/Graphics/SVG/1.1/DTD/svg11.dtd">
<svg version="1.1" id="图层_1" xmlns="http://www.w3.org/2000/svg" xmlns:xlink="http://www.w3.org/1999/xlink" x="0px" y="0px"
	 width="107.5px" height="92.497px" viewBox="52 -112 107.5 92.497" enable-background="new 52 -112 107.5 92.497"
	 xml:space="preserve">
<g id="Book">
	<path fill="#555555" d="M418.855-219.682v-7.447c0-1.201-0.974-2.174-2.175-2.174h-8.696c-1.201,0-2.174,0.973-2.174,2.174v6.564
		c-8.853,0.309-17.683,2.5-21.64,6.375c-4.317-4.193-14.389-6.416-24.014-6.416c-12.963,0-26.086,3.734-26.086,10.869v65.228
		c0,1.201,0.974,2.174,2.174,2.174c0.037,0,0.07-0.02,0.107-0.021c0.038,0.002,0.069,0.021,0.108,0.021
		c1.201,0,2.174-0.973,2.174-2.174c0-0.191,0.037-0.287,0.175-0.42c1.801-1.799,10.135-1.764,18.17-1.752l3.178,0.006
		c13.068,0,21.738,3.916,21.738,6.504c0,1.201,0.973,2.174,2.174,2.174c0.02,0,0.035-0.01,0.055-0.012
		c0.021,0.002,0.035,0.012,0.055,0.012c1.201,0,2.175-0.973,2.175-2.174v-0.514c1.022-2.561,9.399-5.99,21.631-5.99l3.178-0.006
		c8.164-0.014,16.57-0.045,18.394,1.771c0.131,0.133,0.168,0.221,0.168,0.4c0,1.203,0.973,2.174,2.174,2.174
		c1.203,0,2.176-0.973,2.176-2.174v-65.228C434.072-214.826,427.386-218.174,418.855-219.682z M360.158-151.022l-3.164-0.006
		c-8.258-0.012-14.678-0.014-18.574,1.445v-60.153c0-2.598,8.67-6.523,21.738-6.523c14.139,0,21.849,4.412,21.849,6.68v63.226
		C377.1-149.429,368.607-151.022,360.158-151.022z M411.15-151.028l-3.166,0.006c-8.322,0-16.688,1.545-21.631,4.531v-63.089
		c0-2.508,7.678-6.223,19.457-6.637v15.176c0,1.201,0.973,2.174,2.174,2.174h8.696c1.201,0,2.175-0.973,2.175-2.174v-14.221
		c6.784,1.336,10.868,3.742,10.868,5.525v60.077C425.771-151.054,419.352-151.046,411.15-151.028z"/>
	<path fill="#555555" d="M418.855-190.172h-21.74c-1.203,0-2.174,0.973-2.174,2.174s0.971,2.174,2.174,2.174h21.738
		c1.202,0,2.174-0.973,2.174-2.174S420.056-190.172,418.855-190.172z"/>
	<path fill="#555555" d="M371.029-198.867h-21.74c-1.201,0-2.174,0.973-2.174,2.174c0,1.203,0.973,2.174,2.174,2.174h21.738
		c1.203,0,2.174-0.971,2.174-2.174C373.201-197.894,372.23-198.867,371.029-198.867z"/>
	<path fill="#555555" d="M371.029-164.085h-21.74c-1.201,0-2.174,0.973-2.174,2.174s0.973,2.174,2.174,2.174h21.738
		c1.203,0,2.174-0.973,2.174-2.174S372.23-164.085,371.029-164.085z"/>
	<path fill="#555555" d="M371.029-181.476h-21.74c-1.201,0-2.174,0.973-2.174,2.174c0,1.203,0.973,2.174,2.174,2.174h21.738
		c1.203,0,2.174-0.971,2.174-2.174C373.201-180.504,372.23-181.476,371.029-181.476z"/>
	<path fill="#555555" d="M371.029-190.172h-21.74c-1.201,0-2.174,0.973-2.174,2.174s0.973,2.174,2.174,2.174h21.738
		c1.203,0,2.174-0.973,2.174-2.174S372.23-190.172,371.029-190.172z"/>
	<path fill="#555555" d="M371.029-172.779h-21.74c-1.201,0-2.174,0.971-2.174,2.174c0,1.202,0.973,2.173,2.174,2.173h21.738
		c1.203,0,2.174-0.971,2.174-2.173C373.201-171.808,372.23-172.779,371.029-172.779z"/>
	<path fill="#555555" d="M418.855-172.779h-21.74c-1.203,0-2.174,0.971-2.174,2.174c0,1.202,0.971,2.173,2.174,2.173h21.738
		c1.202,0,2.174-0.971,2.174-2.173C421.027-171.808,420.056-172.779,418.855-172.779z"/>
	<path fill="#555555" d="M418.855-181.476h-21.74c-1.203,0-2.174,0.973-2.174,2.174c0,1.203,0.971,2.174,2.174,2.174h21.738
		c1.202,0,2.174-0.971,2.174-2.174C421.027-180.504,420.056-181.476,418.855-181.476z"/>
</g>
<g>
	<rect x="915.559" y="-344.897" fill="none" width="126" height="72"/>
	<text transform="matrix(1 0 0 1 915.5586 -326.875)" fill="#545E64" font-family="'Lato-Regular'" font-size="21">Literature </text>
	<text transform="matrix(1 0 0 1 915.5586 -301.6748)" fill="#545E64" font-family="'Lato-Regular'" font-size="21">review</text>
</g>
<path fill="#555555" d="M625.186-63.158c0-0.994,1.066-1.015,1.066,0c0,0.875,0,2.658,0,4.429h15.78c0-1.86,0-3.562,0-5.037
	c1.823,1.864,4.926,5.016,4.952,5.037h3.865c0.096-0.08,4.566-4.543,7-6.977c2.239-2.239-0.788-5.188-3.412-2.564
	c-0.829,0.83-4.148,4.148-4.745,4.741c-0.59,0.593-1.012,0.487-1.425,0.076c-1.422-1.493-3.931-3.99-7.214-7.174
	c-0.936-0.91-1.859-1.834-4.202-1.834c-0.723,0-5.941,0-8.222,0c-5.29,0-7.576,2.864-7.576,6.596c0,1.878,0,4.255,0,7.139h4.132
	C625.186-60.831,625.186-62.412,625.186-63.158z"/>
<circle fill="#555555" cx="634.251" cy="-79.966" r="4.939"/>
<path fill="#555555" d="M629.352-44.732c-1.711,0-3.102,1.391-3.102,3.104v14.6c0,1.712,1.387,3.104,3.102,3.104
	c1.714,0,3.102-1.391,3.102-3.104c0-0.003-0.002-0.008-0.002-0.01l0.002-14.589C632.453-43.341,631.062-44.732,629.352-44.732z"/>
<path fill="#555555" d="M638.938-44.732c-1.713,0-3.105,1.391-3.105,3.104v14.6c0,1.712,1.393,3.104,3.105,3.104
	s3.102-1.391,3.102-3.104c0-0.003,0-0.008,0-0.01v-14.589C642.04-43.341,640.651-44.732,638.938-44.732z"/>
<polygon fill="#555555" points="604.186,-51.203 602.876,-49.284 602.876,-46.133 665.84,-46.137 665.84,-49.284 664.555,-51.16 
	662.461,-50.062 663.379,-48.682 663.379,-48.499 605.285,-48.499 605.285,-48.682 606.232,-50.104 "/>
<path fill="#555555" d="M611.26-59.137l0.301,0.451l0.197,0.296l1.166,1.759h1.753c0,0,0.024,0,0.039,0l-1.667-2.506l-0.806-1.212
	l-0.516-0.777l-0.148-0.223l-0.004,0.002l-1.239,0.822L611.26-59.137z"/>
<polygon fill="#555555" points="609.499,-61.761 609.658,-61.52 610.908,-62.35 610.748,-62.591 610.594,-62.825 610.41,-63.1 
	609.16,-62.27 609.342,-61.995 "/>
<path fill="#555555" d="M583.269-57.298c-0.405,0-0.839,0.079-1.267,0.205l1.984,18.303v18.889h3.148v-18.889
	c-0.887-7.821-1.721-15.312-2.098-17.196C584.844-56.953,584.122-57.298,583.269-57.298z"/>
<path fill="#555555" d="M609.451-42.958c-0.67-1.46-0.99-2.068-3.553-2.068c0,0-2.612,0.008-3.562,0.008
	c-0.951,0-1.708-0.408-1.64-2.019c0.07-1.673-0.293-4.986-0.177-7.441l5.956,3.234l8.129-0.004c0.48,0,0.869-0.107,1.195-0.275
	c0.188-0.099,0.352-0.21,0.488-0.348c0.137-0.14,0.249-0.292,0.338-0.459c0.029-0.054,0.055-0.11,0.08-0.169
	c0.188-0.447,0.218-0.954,0.098-1.429c-0.049-0.188-0.12-0.371-0.215-0.54c-0.027-0.054-0.055-0.102-0.084-0.153
	c-0.112-0.169-0.254-0.325-0.418-0.46c-0.164-0.14-0.355-0.26-0.573-0.347c-0.268-0.108-0.569-0.17-0.907-0.17l-7.021-0.002
	l-8.062-6c-0.919-0.665-2.103-1-3.31-1c-2.742,0-5.603,1.74-5.77,5.299c0,0-0.662,14.312-0.758,16.672
	c-0.096,2.37,1.756,3.298,4.318,3.298c2.564,0,8.544,0,9.613,0c1.066,0,1.451,0.163,1.943,1.466
	c0.492,1.299,4.514,11.939,5.379,14.24c0.6,1.465,1.789,2.069,2.969,2.069c1.93,0,3.83-1.619,3.033-3.714
	C615.474-27.114,610.121-41.496,609.451-42.958z"/>
<circle fill="#555555" cx="597.496" cy="-69.43" r="4.941"/>
<circle fill="#555555" cx="671.218" cy="-69.43" r="4.941"/>
<path fill="#555555" d="M672.5-62.597c-1.209,0-2.389,0.335-3.311,1l-8.061,5.999l-7.021,0.002c-2.902,0-2.983,4.212,0.188,4.212
	h8.129l5.765-3.092c0.12,2.453-0.243,5.767-0.173,7.439c0.067,1.611-0.688,2.019-1.641,2.019c-0.948,0-3.558-0.006-3.558-0.006
	c-2.563,0-2.885,0.606-3.554,2.066c-0.669,1.462-6.024,15.843-7.492,19.689c-0.798,2.094,1.105,3.714,3.036,3.714
	c1.177,0,2.367-0.602,2.965-2.068c0.862-2.301,4.887-12.943,5.376-14.24c0.491-1.305,0.881-1.465,1.945-1.465
	c1.069,0,7.052,0,9.613,0c2.563,0,4.415-0.93,4.319-3.299c-0.099-2.359-0.76-16.671-0.76-16.671
	C678.104-60.854,675.245-62.597,672.5-62.597z"/>
<path fill="#555555" d="M685.562-57.298c0.405,0,0.842,0.079,1.267,0.205l-2.099,18.303v18.889h-3.148v-18.889
	c0,0,1.929-15.772,2.214-17.196C683.988-56.953,684.708-57.298,685.562-57.298z"/>
<g>
	<polygon fill="#555555" points="610.388,-58.39 610.164,-58.726 609.244,-58.729 607.831,-56.631 610.584,-56.631 611.07,-57.359 	
		"/>
</g>
<g>
	<path fill="#555555" d="M659.464-56.631h1.366l-1.402-2.099c-0.424,0-0.877,0-1.362,0h-1.351l1.398,2.099H659.464z"/>
</g>
<g>
	<rect x="1809.222" y="1418.053" fill="none" width="126" height="72"/>
	<text transform="matrix(1 0 0 1 1809.2227 1436.0762)" fill="#545E64" font-family="'Lato-Regular'" font-size="21">Patient </text>
	<text transform="matrix(1 0 0 1 1809.2227 1461.2754)" fill="#545E64" font-family="'Lato-Regular'" font-size="21">interviews</text>
</g>
<g>
	<rect x="3543.659" y="1429.455" fill="none" width="126" height="72"/>
	<text transform="matrix(1 0 0 1 3543.6602 1447.4785)" fill="#545E64" font-family="'Lato-Regular'" font-size="21">Clinician </text>
	<text transform="matrix(1 0 0 1 3543.6602 1472.6777)" fill="#545E64" font-family="'Lato-Regular'" font-size="21">interviews</text>
</g>
<g>
	<g>
		<path fill="#555555" d="M224.119-1.289v-5.625c0-0.605,0.49-1.099,1.098-1.099s1.098,0.494,1.098,1.099v5.625h22.08v-5.625l0,0
			c0-0.605,0.493-1.099,1.099-1.099c0.608,0,1.098,0.494,1.098,1.099v5.625h6.762v-13.716c0-1.554-1.264-2.819-2.818-2.819h-34.36
			c-1.553,0-2.819,1.265-2.819,2.819v13.716H224.119z"/>
		<path fill="#555555" d="M226.57-29.671c0-5.513,4.484-9.997,9.995-9.997c5.514,0,9.997,4.484,9.997,9.997
			c0,5.511-4.483,9.996-9.997,9.996C231.055-19.674,226.57-24.159,226.57-29.671"/>
	</g>
	<path fill="#555555" d="M300.106-33.215c-0.051,1.605-1.149,2.89-2.506,2.89h-12.586c-1.393,0-2.519-1.343-2.519-3.005v-0.574
		c-0.868,1.481-1.375,3.198-1.375,5.037c0,5.512,4.484,9.996,9.995,9.995c5.514,0,9.997-4.484,9.997-9.995
		C301.114-30.427,300.746-31.898,300.106-33.215z"/>
	<path fill="#555555" d="M278.671-0.486v-5.625c0-0.606,0.49-1.098,1.098-1.098s1.098,0.492,1.098,1.098v5.625h22.079v-5.625h0.002
		c0-0.606,0.492-1.098,1.098-1.098c0.608,0,1.098,0.492,1.098,1.098v5.625h6.762v-13.715c0-1.555-1.264-2.82-2.818-2.82h-34.36
		c-1.553,0-2.819,1.267-2.819,2.82v13.715H278.671z"/>
	<path fill="#555555" d="M296.975-44.125h-11.71c-1.295,0-2.341,1.345-2.341,3.001v6.756c0,1.661,1.046,3.005,2.341,3.005h11.71
		c1.292,0,2.34-1.345,2.34-3.005v-6.756C299.312-42.78,298.267-44.125,296.975-44.125z M295.088-36.526h-2.762v3.456h-2.418v-3.456
		h-2.76v-2.842h2.76v-3.05h2.418v3.05h2.762V-36.526z"/>
	<path fill="#555555" d="M277.939-67.646c-7.888-6.499-18.843-5.509-27.564-1.281c-5.462,2.646-10.861,11.193-5.837,18.91
		c5.024,7.715,0,10.896,0,10.896c5.704-2.243,15.046,6.957,27.461,1.284C287.426-44.891,288.839-58.672,277.939-67.646z
		 M266.032-41.427h-4.872v-4.906h4.872V-41.427z M269.119-54.397c-1.823,1.543-3.331,2.278-3.331,4.906v0.982h-4.346
		c0-1.016-0.036-2.384,0.174-3.399c0.666-3.085,2.699-3.997,4.347-5.503c0.664-0.597,1.366-1.401,1.366-2.524
		c0-1.542-1.191-2.945-3.4-2.945c-2.207,0-3.715,1.228-3.715,3.507h-4.523c0-4.909,3.75-7.468,8.412-7.468
		c4.594,0,7.784,3.015,7.784,6.872C271.887-57.518,270.73-55.764,269.119-54.397z"/>
</g>
<g>
	<path fill="#555555" d="M-2.685,80.482h-49.096h-4.963v3.013h-3.013c-0.708,0-1.239,0.532-1.239,1.24
		c0,0.708,0.531,1.24,1.239,1.24h3.013v3.456h-3.013c-0.708,0-1.239,0.532-1.239,1.241c0,0.708,0.531,1.24,1.239,1.24h3.013v3.456
		h-3.013c-0.708,0-1.239,0.532-1.239,1.24c0,0.709,0.531,1.24,1.239,1.24h3.013v3.457h-3.013c-0.708,0-1.239,0.531-1.239,1.24
		s0.531,1.24,1.239,1.24h3.013v3.456h-3.013c-0.708,0-1.239,0.531-1.239,1.239c0,0.709,0.531,1.241,1.239,1.241h3.013v3.456h-3.013
		c-0.708,0-1.239,0.531-1.239,1.24c0,0.707,0.531,1.24,1.239,1.24h3.013v3.455h-3.013c-0.708,0-1.239,0.533-1.239,1.241
		s0.531,1.241,1.239,1.241h3.013v3.455h-3.013c-0.708,0-1.239,0.532-1.239,1.24s0.531,1.239,1.239,1.239h3.013v3.456h-3.013
		c-0.708,0-1.239,0.532-1.239,1.242c0,0.709,0.531,1.238,1.239,1.238h3.013v3.457h-3.013c-0.708,0-1.239,0.531-1.239,1.239
		c0,0.71,0.531,1.241,1.239,1.241h3.013v3.457h-3.013c-0.708,0-1.239,0.531-1.239,1.238c0,0.709,0.531,1.242,1.239,1.242h3.013
		v3.455h-3.013c-0.708,0-1.239,0.532-1.239,1.24s0.531,1.24,1.239,1.24h3.013v3.455h-3.013c-0.708,0-1.239,0.533-1.239,1.241
		s0.531,1.24,1.239,1.24h3.013v3.013h4.963h49.096c4.166,0,7.444-3.367,7.444-7.443v-64.87C4.759,83.849,1.391,80.482-2.685,80.482z
		 M2.277,152.795c0,2.748-2.215,4.963-4.962,4.963H-49.3V82.963h46.615c2.747,0,4.962,2.216,4.962,4.963V152.795L2.277,152.795z"/>
	<path fill="#555555" d="M-35.333,90.407c0,0.709-0.532,1.24-1.241,1.24h-4.962c-0.71,0-1.241-0.532-1.241-1.24
		s0.532-1.24,1.241-1.24h4.962C-35.864,89.166-35.333,89.698-35.333,90.407z M-2.543,89.166H-31.7c-0.708,0-1.241,0.533-1.241,1.24
		c0,0.709,0.533,1.24,1.241,1.24h29.156c0.71,0,1.241-0.531,1.241-1.24C-1.302,89.698-1.833,89.166-2.543,89.166z M-36.574,97.142
		h-4.962c-0.71,0-1.241,0.532-1.241,1.24c0,0.708,0.532,1.24,1.241,1.24h4.962c0.71,0,1.241-0.532,1.241-1.24
		C-35.333,97.674-35.864,97.142-36.574,97.142z M-2.543,97.142H-31.7c-0.708,0-1.241,0.532-1.241,1.24
		c0,0.708,0.533,1.24,1.241,1.24h29.156c0.71,0,1.241-0.532,1.241-1.24C-1.302,97.674-1.833,97.142-2.543,97.142z M-36.574,105.117
		h-4.962c-0.71,0-1.241,0.532-1.241,1.24c0,0.709,0.532,1.24,1.241,1.24h4.962c0.71,0,1.241-0.531,1.241-1.24
		C-35.333,105.649-35.864,105.117-36.574,105.117z M-2.543,105.117H-31.7c-0.708,0-1.241,0.532-1.241,1.24
		c0,0.709,0.533,1.24,1.241,1.24h29.156c0.71,0,1.241-0.531,1.241-1.24C-1.302,105.649-1.833,105.117-2.543,105.117z
		 M-36.574,113.094h-4.962c-0.71,0-1.241,0.531-1.241,1.24c0,0.708,0.532,1.24,1.241,1.24h4.962c0.71,0,1.241-0.532,1.241-1.24
		C-35.333,113.625-35.864,113.094-36.574,113.094z M-2.543,113.094H-31.7c-0.708,0-1.241,0.531-1.241,1.24
		c0,0.708,0.533,1.24,1.241,1.24h29.156c0.71,0,1.241-0.532,1.241-1.24C-1.302,113.625-1.833,113.094-2.543,113.094z"/>
</g>
<g>
	<rect x="980.486" y="3125.188" fill="none" width="66.76" height="72"/>
	<text transform="matrix(1 0 0 1 980.4844 3143.2109)" fill="#545E64" font-family="'Lato-Regular'" font-size="21">Diary </text>
	<text transform="matrix(1 0 0 1 980.4844 3168.4121)" fill="#545E64" font-family="'Lato-Regular'" font-size="21">study</text>
</g>
<g id="Your_Icon_7_">
	<path fill="#555555" d="M179.683,51.705h26.9c3.502,0,6.367,2.867,6.367,6.375v12.729c0,3.508-2.865,6.377-6.367,6.377h-4.146
		v8.206l-8.205-8.206h-14.549c-3.51,0-6.37-2.869-6.37-6.377V58.08C173.311,54.572,176.179,51.705,179.683,51.705z"/>
	<path fill="#555555" d="M217.351,95.006c-5.076,0-9.194-4.117-9.194-9.192c0-5.083,4.118-9.201,9.194-9.201
		c5.084,0,9.201,4.119,9.201,9.201C226.552,90.888,222.437,95.006,217.351,95.006z"/>
	<path fill="#555555" d="M201.685,127.359c0-2.232,0-14.705,0-18.027c0-6.498,4.537-11.778,10.07-11.778c2.748,0,8.123,0,10.797,0
		c5.533,0,10.471,5.282,10.471,11.778c0,3.322,0,15.797,0,18.027H201.685z"/>
	<path fill="#555555" d="M198.747,99.684l-22.979-0.06l-2.229,5.416c-2.434-2.244-5.506-3.594-8.729-3.594
		c-3.558,0-10.703,0-14.357,0c-7.355,0-13.391,7.027-13.391,15.666c0,4.418,0,21.002,0,23.973h41.671c0-1.362,0-5.606,0-10.223
		l7.181,0.018L198.747,99.684z M187.386,122.227l-8.65-0.021c0-0.24,0-0.477,0-0.705l8.939,0.021L187.386,122.227z M188.53,119.443
		l-9.795-0.027c0-0.244,0-0.479,0-0.705l10.086,0.027L188.53,119.443z M189.675,116.658l-10.951-0.027
		c-0.008-0.235-0.02-0.473-0.035-0.705l11.277,0.029L189.675,116.658z M190.819,113.875l-12.406-0.03
		c-0.047-0.236-0.098-0.476-0.154-0.705l12.852,0.03L190.819,113.875z M191.966,111.092l-14.359-0.036
		c-0.092-0.238-0.188-0.476-0.293-0.707l14.941,0.039L191.966,111.092z M193.11,108.309l-16.904-0.045
		c-0.15-0.24-0.309-0.478-0.471-0.707l17.666,0.047L193.11,108.309z M176.888,101.986l18.803,0.047l-0.291,0.705l-18.803-0.049
		L176.888,101.986z M175.741,104.77l18.805,0.049l-0.291,0.703l-18.803-0.047L175.741,104.77z M178.735,124.285l7.793,0.021
		l-0.289,0.703l-7.504-0.021C178.735,124.754,178.735,124.52,178.735,124.285z"/>
	<path fill="#555555" d="M158.02,98.236c6.764,0,12.235-5.479,12.235-12.229c0-6.759-5.478-12.233-12.235-12.233
		c-6.75,0-12.228,5.476-12.228,12.233C145.792,92.76,151.27,98.236,158.02,98.236z"/>
</g>
<g>
	<rect x="58.728" y="459.07" fill="none" width="126" height="72"/>
	<text transform="matrix(1 0 0 1 58.7285 477.0938)" fill="#545E64" font-family="'Lato-Regular'" font-size="21">Expert </text>
	<text transform="matrix(1 0 0 1 58.7285 502.293)" fill="#545E64" font-family="'Lato-Regular'" font-size="21">interviews</text>
</g>
<g>
	<path fill="#555555" d="M384.072,1.705v100h80v-100H384.072z M461.072,95.705h-74v-91h74V95.705z"/>
	<rect x="393.908" y="67.402" fill="#555555" width="29.014" height="2.169"/>
	<rect x="393.908" y="59.518" fill="#555555" width="29.014" height="2.17"/>
	<rect x="393.908" y="75.286" fill="#555555" width="29.014" height="2.169"/>
	<rect x="393.908" y="83.169" fill="#555555" width="29.014" height="2.169"/>
	<rect x="393.908" y="8.98" fill="#555555" width="47.195" height="3.528"/>
	<polygon fill="#555555" points="452.072,84.705 452.072,51.705 447.072,51.705 447.072,84.705 444.072,84.705 444.072,24.705 
		437.072,24.705 437.072,84.705 431.072,84.705 431.072,85.705 458.072,85.705 458.072,84.705 	"/>
	<g>
		<path fill="#555555" d="M408.5,39.611l3.523-13.327c-1.127-0.297-2.306-0.471-3.523-0.471c-7.621,0-13.799,6.178-13.799,13.799
			S400.879,53.41,408.5,53.41s13.797-6.178,13.797-13.798c0-2.244-0.547-4.356-1.498-6.229L408.5,39.611z"/>
		<path fill="#555555" d="M424.471,28.821c-1.76-3.469-4.938-6.085-8.776-7.098l-3.523,13.327L424.471,28.821z"/>
	</g>
</g>
<g>
	<rect x="2577.051" y="-192.898" fill="none" width="126" height="72"/>
	<text transform="matrix(1 0 0 1 2577.0508 -174.875)" fill="#545E64" font-family="'Lato-Regular'" font-size="21">Domain </text>
	<text transform="matrix(1 0 0 1 2577.0508 -149.6748)" fill="#545E64" font-family="'Lato-Regular'" font-size="21">analysis</text>
</g>
<g>
	<path fill="#555555" d="M397-69.295c0,4.549-2.805,8.951-7.204,10.398c-4.866,1.602-10.046-0.961-12.21-5.5
		c-1.103-2.312-1.163-4.747-1.011-7.25c0.173-2.837,0.511-5.67,0.964-8.479c0.472-2.921,1.059-5.849,1.975-8.667
		c0.7-2.159,1.685-5.411,3.885-6.509c2.159-1.2,4.534,1.07,5.248,2.968c-1.052-0.919-1.624-1.592-3.062-1.908
		c-1.588-0.347-2.628,0.993-3.099,2.403v0.011c-1.572,3.69-2.099,8.129-2.194,12.112c-0.08,3.314,2.81,7.062,6.468,6.33
		c-0.293,0.9-0.52,1.862-0.911,2.725c-0.344,0.791-0.697,1.729-0.331,2.578c0.549,1.271,2.439,1.705,3.632,1.219
		c0.729-0.243,1.316-0.778,1.619-1.52l4.325-10.219C396.28-74.774,397-71.27,397-69.295z"/>
	<circle fill="#555555" cx="361.048" cy="-103.223" r="6.583"/>
	<path fill="#555555" d="M370.54-88.538c-1.326,0-2.405,1.076-2.405,2.405c0,0.555,0.196,1.06,0.513,1.466
		c-0.024,0.09-0.054,0.178-0.069,0.274l-0.809,4.628l-2.926-0.258v-9.781c0-3.077-2.492-5.57-5.57-5.57
		c-2.902,0-5.287,2.223-5.543,5.06l-4.207,10.55c-0.414,1.039,0.258,2.283,1.501,2.778c0.309,0.124,2.677,0.559,2.677,0.559v10.929
		c0,1.363,0.494,2.608,1.305,3.578l1.229,34.653c0,1.54,1.248,2.786,2.785,2.786c1.539,0,2.785-1.247,2.785-2.786l2.53-35.916
		c0.325-0.705,0.509-1.488,0.509-2.316v-9.952l2.142,0.187l-0.104,0.601c-0.104,0.602,0.276,1.169,0.848,1.292
		c0.572,0.124,1.153-0.235,1.306-0.827l0.236-0.908c1.147-0.099,2.084-0.944,2.182-2.052c0.076-0.861-0.383-1.647-1.108-2.099
		l1.166-4.506c0.015-0.063,0.021-0.127,0.033-0.191c0.827-0.38,1.404-1.211,1.404-2.182
		C372.946-87.461,371.869-88.538,370.54-88.538z"/>
	<circle fill="#555555" cx="381.809" cy="-103.476" r="6.583"/>
	<path fill="#555555" d="M386.751-57.396c0.312,0,0.617-0.011,0.921-0.041l-1.053,29.917c0,1.54-1.246,2.786-2.786,2.786
		c-1.539,0-2.786-1.247-2.786-2.786l-2.358-33.461C380.733-58.773,383.592-57.396,386.751-57.396z"/>
	<path fill="#555555" d="M381.827-95.343c-1.64,1.65-2.885,4.688-3.816,8.142v-2.856C378.011-92.527,379.611-94.614,381.827-95.343z
		"/>
	<path fill="#555555" d="M394.831-82.887l-5.682-7.019c0.253-1.924-3.516-3.588-4.283-3.443c-1.265,0.238-2.248,4.335-2.308,4.588
		v0.01l0.009,0.011c-0.191,0.74-0.76,2.988-0.912,4.841c-0.02,0.246-0.354,2.957-0.354,4.406c0,2.835,2.147,5.134,4.78,5.134
		c0.141,0,1.297,0,2.238-0.597c0,0-1.139,3.342-1.448,4.477c-0.253,0.932-0.759,1.944,0.162,2.532
		c0.284,0.181,1.125,0.254,1.609,0.192c0.674-0.083,1.014-0.527,1.196-1.023l4.324-10.219c0,0,0.972-2.046,1.022-2.411
		C395.279-81.944,395.167-82.471,394.831-82.887z M389.15-77.489v-4.719l1.094,1.347L389.15-77.489z"/>
</g>
<g>
	<rect x="1514.881" y="105.904" fill="none" width="126" height="72"/>
	<text transform="matrix(1 0 0 1 1514.8809 123.9258)" fill="#545E64" font-family="'Lato-Regular'" font-size="21">Guerilla </text>
	<text transform="matrix(1 0 0 1 1514.8809 149.127)" fill="#545E64" font-family="'Lato-Regular'" font-size="21">interviews</text>
</g>
<g>
	<g id="Your_Icon_14_">
		<path fill="#555555" d="M132.81-70.666L98.24-94.365c-1.12-0.769-2.596-0.769-3.714,0L59.958-70.666
			c-1.497,1.026-1.879,3.07-0.853,4.565c0.635,0.93,1.666,1.427,2.711,1.427c0.64,0,1.288-0.186,1.855-0.576l3.95-2.708l2.098-1.438
			v0.071l7.812-5.393c-0.007-0.009-0.014-0.013-0.02-0.017l6.265-4.296l11.441-7.903c0.092-0.063,0.196-0.097,0.295-0.145
			l0.869-0.598l0.871,0.597c0.098,0.047,0.199,0.08,0.291,0.141l17.752,12.171l7.75,5.314l2.185,1.496l4.291,2.943
			c1.439,0.701,3.207,0.274,4.14-1.086C134.688-67.596,134.306-69.64,132.81-70.666z"/>
		<path fill="#555555" d="M116.478-68.98v1.022v29.351h-12.382v-17.481c0-1.813-1.471-3.284-3.284-3.284h-8.856
			c-1.813,0-3.285,1.47-3.285,3.284v17.483H76.288v-29.353v-0.914l-1.323,0.914l-5.246,3.623v26.727
			c0,3.073,2.498,5.571,5.569,5.571h42.187c3.072,0,5.569-2.499,5.569-5.571v-26.87l-5.076-3.48L116.478-68.98z"/>
	</g>
	<g>
		<path fill="#555555" d="M151.659-43.428c0.074,0,0.149-0.007,0.225-0.022c0.713-0.145,1.19-0.935,1.066-1.766
			c-0.219-1.482-1.432-8.991-3.628-10.994c-1.012-0.921-2.912-1.335-4.835-1.335c-2.011,0-4.045,0.454-5.106,1.257
			c-2.366,1.788-3.451,8.954-3.729,11.107c-0.108,0.834,0.386,1.611,1.104,1.736c0.065,0.011,0.131,0.017,0.195,0.017
			c0.637,0,1.196-0.542,1.294-1.301c0.316-2.471,0.916-5.254,1.556-7.083c-0.048,0.311-0.083,0.627-0.083,0.955v4.481
			c0,0.015,0.008,0.026,0.008,0.042c0.005,4.469,0.115,8.582,0.335,12.562c0.057,0.969,0.748,1.713,1.568,1.713
			c0.035,0,0.069-0.002,0.104-0.004c0.867-0.065,1.523-0.939,1.468-1.948c-0.185-3.277-0.286-6.66-0.317-10.257
			c0.459,0.065,0.938,0.098,1.419,0.098c0.473,0,0.944-0.032,1.4-0.095c-0.032,3.61-0.134,7.001-0.317,10.276
			c-0.058,1.011,0.601,1.884,1.464,1.949c0.036,0.002,0.071,0.003,0.107,0.003c0.82,0,1.511-0.743,1.566-1.713
			c0.222-3.941,0.331-8.029,0.336-12.47c0.006-0.054,0.032-0.1,0.032-0.157v-4.481c0-0.201-0.034-0.393-0.051-0.589
			c0.611,1.86,1.187,4.462,1.528,6.754C150.479-43.953,151.027-43.428,151.659-43.428z"/>
		<g>
			<ellipse fill="#555555" cx="144.305" cy="-63.969" rx="4.979" ry="5.142"/>
		</g>
	</g>
</g>
</svg>
