<?xml version="1.0" encoding="utf-8"?>
<!-- Generator: Adobe Illustrator 16.0.0, SVG Export Plug-In . SVG Version: 6.00 Build 0)  -->
<!DOCTYPE svg PUBLIC "-//W3C//DTD SVG 1.1//EN" "http://www.w3.org/Graphics/SVG/1.1/DTD/svg11.dtd">
<svg version="1.1" id="图层_1" xmlns="http://www.w3.org/2000/svg" xmlns:xlink="http://www.w3.org/1999/xlink" x="0px" y="0px"
	 width="107.5px" height="92.497px" viewBox="52 -112 107.5 92.497" enable-background="new 52 -112 107.5 92.497"
	 xml:space="preserve">
<g id="Book">
	<path fill="#555555" d="M140.87-101.188v-7.447c0-1.201-0.974-2.174-2.175-2.174h-8.696c-1.201,0-2.174,0.973-2.174,2.174v6.564
		c-8.853,0.309-17.683,2.5-21.64,6.375c-4.317-4.193-14.389-6.416-24.014-6.416c-12.963,0-26.086,3.734-26.086,10.869v65.228
		c0,1.201,0.973,2.174,2.174,2.174c0.037,0,0.07-0.02,0.107-0.021c0.039,0.002,0.07,0.021,0.109,0.021
		c1.201,0,2.174-0.973,2.174-2.174c0-0.191,0.037-0.287,0.174-0.42c1.801-1.799,10.135-1.764,18.17-1.752l3.178,0.006
		c13.068,0,21.738,3.916,21.738,6.504c0,1.201,0.973,2.174,2.174,2.174c0.02,0,0.035-0.01,0.055-0.012
		c0.021,0.002,0.035,0.012,0.055,0.012c1.201,0,2.175-0.973,2.175-2.174v-0.514c1.022-2.561,9.399-5.99,21.631-5.99l3.178-0.006
		c8.164-0.014,16.57-0.045,18.394,1.771c0.131,0.133,0.168,0.221,0.168,0.4c0,1.203,0.973,2.174,2.174,2.174
		c1.203,0,2.176-0.973,2.176-2.174v-65.228C156.087-96.332,149.4-99.68,140.87-101.188z M82.173-32.528l-3.164-0.006
		c-8.258-0.012-14.678-0.014-18.574,1.445v-60.153c0-2.598,8.67-6.523,21.738-6.523c14.139,0,21.849,4.412,21.849,6.68v63.226
		C99.114-30.935,90.622-32.528,82.173-32.528z M133.165-32.534l-3.166,0.006c-8.322,0-16.688,1.545-21.631,4.531v-63.089
		c0-2.508,7.678-6.223,19.457-6.637v15.176c0,1.201,0.973,2.174,2.174,2.174h8.696c1.201,0,2.175-0.973,2.175-2.174v-14.221
		c6.784,1.336,10.868,3.742,10.868,5.525v60.077C147.786-32.56,141.366-32.552,133.165-32.534z"/>
	<path fill="#555555" d="M140.87-71.678h-21.74c-1.203,0-2.174,0.973-2.174,2.174s0.971,2.174,2.174,2.174h21.738
		c1.202,0,2.174-0.973,2.174-2.174S142.07-71.678,140.87-71.678z"/>
	<path fill="#555555" d="M93.044-80.373h-21.74c-1.201,0-2.174,0.973-2.174,2.174c0,1.203,0.973,2.174,2.174,2.174h21.738
		c1.203,0,2.174-0.971,2.174-2.174C95.216-79.4,94.245-80.373,93.044-80.373z"/>
	<path fill="#555555" d="M93.044-45.591h-21.74c-1.201,0-2.174,0.973-2.174,2.174s0.973,2.174,2.174,2.174h21.738
		c1.203,0,2.174-0.973,2.174-2.174S94.245-45.591,93.044-45.591z"/>
	<path fill="#555555" d="M93.044-62.982h-21.74c-1.201,0-2.174,0.973-2.174,2.174c0,1.203,0.973,2.174,2.174,2.174h21.738
		c1.203,0,2.174-0.971,2.174-2.174C95.216-62.01,94.245-62.982,93.044-62.982z"/>
	<path fill="#555555" d="M93.044-71.678h-21.74c-1.201,0-2.174,0.973-2.174,2.174s0.973,2.174,2.174,2.174h21.738
		c1.203,0,2.174-0.973,2.174-2.174S94.245-71.678,93.044-71.678z"/>
	<path fill="#555555" d="M93.044-54.285h-21.74c-1.201,0-2.174,0.971-2.174,2.174c0,1.202,0.973,2.173,2.174,2.173h21.738
		c1.203,0,2.174-0.971,2.174-2.173C95.216-53.314,94.245-54.285,93.044-54.285z"/>
	<path fill="#555555" d="M140.87-54.285h-21.74c-1.203,0-2.174,0.971-2.174,2.174c0,1.202,0.971,2.173,2.174,2.173h21.738
		c1.202,0,2.174-0.971,2.174-2.173C143.042-53.314,142.07-54.285,140.87-54.285z"/>
	<path fill="#555555" d="M140.87-62.982h-21.74c-1.203,0-2.174,0.973-2.174,2.174c0,1.203,0.971,2.174,2.174,2.174h21.738
		c1.202,0,2.174-0.971,2.174-2.174C143.042-62.01,142.07-62.982,140.87-62.982z"/>
</g>
<g>
	<rect x="915.559" y="-344.897" fill="none" width="126" height="72"/>
	<text transform="matrix(1 0 0 1 915.5586 -326.875)" fill="#545E64" font-family="'Lato-Regular'" font-size="21">Literature </text>
	<text transform="matrix(1 0 0 1 915.5586 -301.6748)" fill="#545E64" font-family="'Lato-Regular'" font-size="21">review</text>
</g>
<path d="M758.761,353.796c0-1.574,1.689-1.608,1.689,0c0,1.386,0,4.21,0,7.016h24.998c0-2.946,0-5.643,0-7.979
	c2.889,2.952,7.805,7.945,7.846,7.979h6.125c0.15-0.127,7.232-7.196,11.086-11.053c3.549-3.547-1.248-8.219-5.404-4.062
	c-1.313,1.315-6.571,6.571-7.516,7.511c-0.936,0.938-1.604,0.771-2.258,0.119c-2.252-2.364-6.226-6.32-11.428-11.365
	c-1.482-1.44-2.945-2.905-6.658-2.905c-1.144,0-9.41,0-13.023,0c-8.381,0-12.002,4.537-12.002,10.449c0,2.976,0,6.74,0,11.31h6.547
	C758.761,357.483,758.761,354.979,758.761,353.796z"/>
<circle cx="773.122" cy="327.17" r="7.825"/>
<path d="M765.36,382.986c-2.711,0-4.914,2.203-4.914,4.917v23.128c0,2.713,2.198,4.917,4.914,4.917c2.715,0,4.914-2.204,4.914-4.917
	c0-0.004-0.003-0.012-0.003-0.016l0.003-23.112C770.274,385.189,768.071,382.986,765.36,382.986z"/>
<path d="M780.548,382.986c-2.713,0-4.918,2.203-4.918,4.917v23.128c0,2.713,2.205,4.917,4.918,4.917
	c2.715,0,4.914-2.204,4.914-4.917c0-0.004,0-0.012,0-0.016v-23.112C785.462,385.189,783.263,382.986,780.548,382.986z"/>
<polygon points="725.493,372.734 723.419,375.774 723.419,380.768 823.165,380.761 823.165,375.774 821.128,372.803 
	817.812,374.542 819.267,376.729 819.267,377.019 727.235,377.019 727.235,376.729 728.737,374.476 "/>
<path d="M736.7,360.166l0.477,0.715l0.312,0.47l1.848,2.786h2.777c0,0,0.039,0,0.062,0l-2.641-3.971l-1.277-1.92l-0.815-1.23
	l-0.236-0.354l-0.006,0.004l-1.963,1.303L736.7,360.166z"/>
<polygon points="733.911,356.01 734.163,356.392 736.144,355.076 735.89,354.694 735.646,354.324 735.354,353.889 733.374,355.203 
	733.661,355.639 "/>
<path d="M692.358,363.079c-0.642,0-1.33,0.125-2.007,0.324l3.144,28.994v29.924h4.988v-29.924
	c-1.406-12.39-2.728-24.256-3.324-27.241C694.854,363.627,693.71,363.079,692.358,363.079z"/>
<path d="M733.835,385.797c-1.061-2.312-1.568-3.275-5.627-3.275c0,0-4.139,0.013-5.643,0.013c-1.507,0-2.707-0.646-2.599-3.198
	c0.113-2.65-0.463-7.898-0.279-11.788l9.437,5.124l12.877-0.007c0.76,0,1.377-0.17,1.893-0.437c0.298-0.155,0.558-0.332,0.773-0.552
	c0.217-0.222,0.396-0.463,0.535-0.728c0.047-0.085,0.088-0.174,0.127-0.268c0.297-0.708,0.346-1.511,0.156-2.264
	c-0.078-0.299-0.191-0.587-0.341-0.855c-0.043-0.085-0.086-0.161-0.133-0.243c-0.178-0.268-0.403-0.515-0.662-0.729
	c-0.262-0.222-0.562-0.411-0.909-0.549c-0.423-0.172-0.9-0.27-1.437-0.27l-11.123-0.003l-12.771-9.505
	c-1.457-1.053-3.332-1.584-5.244-1.584c-4.344,0-8.875,2.756-9.138,8.395c0,0-1.051,22.672-1.202,26.41
	c-0.15,3.754,2.782,5.225,6.842,5.225c4.062,0,13.535,0,15.229,0c1.689,0,2.3,0.258,3.08,2.322
	c0.779,2.058,7.148,18.914,8.521,22.559c0.949,2.321,2.832,3.277,4.703,3.277c3.057,0,6.065-2.565,4.805-5.884
	C743.376,410.896,734.896,388.113,733.835,385.797z"/>
<circle cx="714.896" cy="343.861" r="7.827"/>
<circle cx="831.685" cy="343.861" r="7.827"/>
<path d="M833.714,354.686c-1.912,0-3.783,0.53-5.244,1.584l-12.768,9.504l-11.123,0.004c-4.596,0-4.726,6.672,0.299,6.672h12.877
	l9.135-4.898c0.188,3.887-0.387,9.136-0.276,11.785c0.108,2.553-1.088,3.198-2.599,3.198c-1.502,0-5.635-0.01-5.635-0.01
	c-4.062,0-4.57,0.961-5.631,3.273c-1.061,2.316-9.543,25.099-11.869,31.191c-1.264,3.317,1.752,5.884,4.812,5.884
	c1.862,0,3.75-0.954,4.694-3.276c1.369-3.646,7.742-20.504,8.519-22.559c0.778-2.066,1.395-2.321,3.082-2.321
	c1.694,0,11.17,0,15.229,0c4.06,0,6.994-1.474,6.842-5.227c-0.155-3.737-1.203-26.41-1.203-26.41
	C842.593,357.445,838.062,354.686,833.714,354.686z"/>
<path d="M854.407,363.079c0.641,0,1.332,0.125,2.006,0.324l-3.324,28.994v29.924h-4.988v-29.924c0,0,3.056-24.986,3.507-27.241
	C851.913,363.627,853.056,363.079,854.407,363.079z"/>
<g>
	<polygon points="735.319,361.351 734.966,360.817 733.507,360.812 731.269,364.137 735.63,364.137 736.401,362.983 	"/>
</g>
<g>
	<path d="M813.062,364.137h2.166l-2.223-3.325c-0.67,0-1.389,0-2.158,0h-2.139l2.215,3.325H813.062z"/>
</g>
<g>
	<rect x="1809.222" y="1418.053" fill="none" width="126" height="72"/>
	<text transform="matrix(1 0 0 1 1809.2227 1436.0762)" fill="#545E64" font-family="'Lato-Regular'" font-size="21">Patient </text>
	<text transform="matrix(1 0 0 1 1809.2227 1461.2754)" fill="#545E64" font-family="'Lato-Regular'" font-size="21">interviews</text>
</g>
<g>
	<rect x="3543.659" y="1429.455" fill="none" width="126" height="72"/>
	<text transform="matrix(1 0 0 1 3543.6602 1447.4785)" fill="#545E64" font-family="'Lato-Regular'" font-size="21">Clinician </text>
	<text transform="matrix(1 0 0 1 3543.6602 1472.6777)" fill="#545E64" font-family="'Lato-Regular'" font-size="21">interviews</text>
</g>
<g>
	<g>
		<path d="M1473.339,405.731v-7.476c0-0.805,0.652-1.461,1.459-1.461c0.808,0,1.459,0.656,1.459,1.461v7.476h29.344v-7.476h0.002
			c0-0.805,0.654-1.461,1.459-1.461c0.808,0,1.459,0.656,1.459,1.461v7.476h8.986v-18.229c0-2.064-1.68-3.746-3.746-3.746h-45.666
			c-2.063,0-3.746,1.682-3.746,3.746v18.229H1473.339z"/>
		<path d="M1476.597,368.012c0-7.327,5.959-13.286,13.283-13.286c7.328,0,13.287,5.959,13.287,13.286
			c0,7.324-5.959,13.284-13.287,13.284C1482.556,381.297,1476.597,375.337,1476.597,368.012"/>
	</g>
	<path d="M1574.327,363.302c-0.068,2.133-1.527,3.84-3.33,3.84h-16.728c-1.85,0-3.346-1.785-3.346-3.993v-0.764
		c-1.154,1.969-1.828,4.251-1.828,6.694c0,7.325,5.959,13.285,13.283,13.284c7.328,0,13.287-5.96,13.287-13.284
		C1575.667,367.007,1575.177,365.052,1574.327,363.302z"/>
	<path d="M1545.839,406.798v-7.475c0-0.806,0.652-1.459,1.459-1.459c0.808,0,1.459,0.653,1.459,1.459v7.475h29.344v-7.475h0.002
		c0-0.806,0.654-1.459,1.459-1.459c0.808,0,1.459,0.653,1.459,1.459v7.475h8.986v-18.227c0-2.066-1.68-3.748-3.746-3.748h-45.666
		c-2.063,0-3.746,1.684-3.746,3.748v18.227H1545.839z"/>
	<path d="M1570.165,348.802h-15.563c-1.721,0-3.11,1.787-3.11,3.988v8.979c0,2.208,1.391,3.994,3.11,3.994h15.563
		c1.717,0,3.109-1.787,3.109-3.994v-8.979C1573.271,350.589,1571.882,348.802,1570.165,348.802z M1567.657,358.901h-3.67v4.593
		h-3.214v-4.593h-3.668v-3.777h3.668v-4.054h3.214v4.054h3.67V358.901z"/>
	<path d="M1544.868,317.541c-10.484-8.637-25.043-7.321-36.635-1.703c-7.259,3.518-14.435,14.876-7.757,25.132
		c6.677,10.253,0,14.481,0,14.481c7.58-2.98,19.996,9.246,36.496,1.706C1557.476,347.783,1559.354,329.468,1544.868,317.541z
		 M1529.042,352.388h-6.475v-6.521h6.475V352.388z M1533.145,335.149c-2.423,2.051-4.427,3.028-4.427,6.521v1.305h-5.776
		c0-1.35-0.047-3.168,0.231-4.518c0.886-4.1,3.588-5.312,5.777-7.314c0.883-0.793,1.815-1.862,1.815-3.354
		c0-2.049-1.584-3.914-4.52-3.914c-2.934,0-4.938,1.631-4.938,4.66h-6.011c0-6.523,4.984-9.926,11.181-9.926
		c6.104,0,10.344,4.008,10.344,9.133C1536.823,331.003,1535.286,333.333,1533.145,335.149z"/>
</g>
<g>
	<path d="M93.58,1015.062h-55.4h-5.6v3.399h-3.4c-0.799,0-1.398,0.601-1.398,1.399s0.6,1.399,1.398,1.399h3.4v3.899h-3.4
		c-0.799,0-1.398,0.601-1.398,1.4c0,0.799,0.6,1.399,1.398,1.399h3.4v3.899h-3.4c-0.799,0-1.398,0.601-1.398,1.399
		c0,0.8,0.6,1.399,1.398,1.399h3.4v3.9h-3.4c-0.799,0-1.398,0.6-1.398,1.399s0.6,1.399,1.398,1.399h3.4v3.9h-3.4
		c-0.799,0-1.398,0.6-1.398,1.398c0,0.801,0.6,1.4,1.398,1.4h3.4v3.899h-3.4c-0.799,0-1.398,0.601-1.398,1.399s0.6,1.4,1.398,1.4
		h3.4v3.898h-3.4c-0.799,0-1.398,0.602-1.398,1.4s0.6,1.4,1.398,1.4h3.4v3.898h-3.4c-0.799,0-1.398,0.602-1.398,1.4
		s0.6,1.398,1.398,1.398h3.4v3.9h-3.4c-0.799,0-1.398,0.6-1.398,1.4c0,0.8,0.6,1.398,1.398,1.398h3.4v3.9h-3.4
		c-0.799,0-1.398,0.6-1.398,1.398c0,0.802,0.6,1.4,1.398,1.4h3.4v3.9h-3.4c-0.799,0-1.398,0.6-1.398,1.398c0,0.8,0.6,1.4,1.398,1.4
		h3.4v3.899h-3.4c-0.799,0-1.398,0.601-1.398,1.399s0.6,1.4,1.398,1.4h3.4v3.898h-3.4c-0.799,0-1.398,0.602-1.398,1.4
		s0.6,1.399,1.398,1.399h3.4v3.399h5.6h55.4c4.701,0,8.4-3.8,8.4-8.399v-73.199C101.98,1018.861,98.18,1015.062,93.58,1015.062z
		 M99.18,1096.661c0,3.101-2.5,5.601-5.6,5.601h-52.6v-84.399h52.6c3.1,0,5.6,2.5,5.6,5.601V1096.661L99.18,1096.661z"/>
	<path d="M56.74,1026.262c0,0.801-0.6,1.399-1.4,1.399h-5.6c-0.801,0-1.4-0.601-1.4-1.399s0.6-1.399,1.4-1.399h5.6
		C56.141,1024.861,56.74,1025.462,56.74,1026.262z M93.74,1024.861h-32.9c-0.799,0-1.4,0.601-1.4,1.399c0,0.8,0.602,1.399,1.4,1.399
		h32.9c0.801,0,1.4-0.6,1.4-1.399C95.14,1025.462,94.541,1024.861,93.74,1024.861z M55.34,1033.861h-5.6
		c-0.801,0-1.4,0.601-1.4,1.399c0,0.8,0.6,1.399,1.4,1.399h5.6c0.801,0,1.4-0.6,1.4-1.399
		C56.74,1034.462,56.141,1033.861,55.34,1033.861z M93.74,1033.861h-32.9c-0.799,0-1.4,0.601-1.4,1.399c0,0.8,0.602,1.399,1.4,1.399
		h32.9c0.801,0,1.4-0.6,1.4-1.399C95.14,1034.462,94.541,1033.861,93.74,1033.861z M55.34,1042.861h-5.6
		c-0.801,0-1.4,0.601-1.4,1.399c0,0.8,0.6,1.399,1.4,1.399h5.6c0.801,0,1.4-0.6,1.4-1.399
		C56.74,1043.462,56.141,1042.861,55.34,1042.861z M93.74,1042.861h-32.9c-0.799,0-1.4,0.601-1.4,1.399c0,0.8,0.602,1.399,1.4,1.399
		h32.9c0.801,0,1.4-0.6,1.4-1.399C95.14,1043.462,94.541,1042.861,93.74,1042.861z M55.34,1051.861h-5.6
		c-0.801,0-1.4,0.601-1.4,1.399c0,0.8,0.6,1.399,1.4,1.399h5.6c0.801,0,1.4-0.6,1.4-1.399
		C56.74,1052.462,56.141,1051.861,55.34,1051.861z M93.74,1051.861h-32.9c-0.799,0-1.4,0.601-1.4,1.399c0,0.8,0.602,1.399,1.4,1.399
		h32.9c0.801,0,1.4-0.6,1.4-1.399C95.14,1052.462,94.541,1051.861,93.74,1051.861z"/>
</g>
<g>
	<rect x="980.486" y="3125.188" fill="none" width="66.76" height="72"/>
	<text transform="matrix(1 0 0 1 980.4844 3143.2109)" fill="#545E64" font-family="'Lato-Regular'" font-size="21">Diary </text>
	<text transform="matrix(1 0 0 1 980.4844 3168.4121)" fill="#545E64" font-family="'Lato-Regular'" font-size="21">study</text>
</g>
<g>
	<g id="Your_Icon_14_">
		<path d="M865.39,999.006l-60.182-41.258c-1.949-1.338-4.518-1.338-6.465,0l-60.178,41.258c-2.604,1.785-3.271,5.344-1.484,7.947
			c1.106,1.618,2.9,2.484,4.721,2.484c1.113,0,2.242-0.323,3.23-1.003l6.877-4.715l3.651-2.504v0.125l13.599-9.389
			c-0.013-0.015-0.025-0.021-0.035-0.029l10.906-7.479l19.918-13.758c0.16-0.11,0.342-0.169,0.514-0.252l1.514-1.041l1.517,1.039
			c0.17,0.082,0.346,0.138,0.506,0.245l30.904,21.188l13.491,9.251l3.804,2.604l7.469,5.123c2.506,1.221,5.584,0.478,7.207-1.891
			C868.657,1004.35,867.993,1000.791,865.39,999.006z"/>
		<path d="M836.958,1001.939v1.78v51.097h-21.555v-30.433c0-3.157-2.562-5.717-5.718-5.717h-15.418c-3.157,0-5.719,2.56-5.719,5.717
			v30.436h-21.557v-51.1v-1.591l-2.303,1.591l-9.132,6.308v46.527c0,5.35,4.349,9.698,9.695,9.698h73.441
			c5.348,0,9.696-4.35,9.696-9.698v-46.775l-8.838-6.06L836.958,1001.939z"/>
	</g>
	<g>
		<path d="M898.202,1046.423c0.131,0,0.262-0.013,0.393-0.038c1.24-0.252,2.072-1.628,1.857-3.074
			c-0.383-2.582-2.494-15.652-6.316-19.14c-1.762-1.604-5.069-2.325-8.416-2.325c-3.502,0-7.043,0.79-8.891,2.188
			c-4.119,3.112-6.008,15.588-6.49,19.336c-0.188,1.453,0.672,2.806,1.92,3.022c0.113,0.02,0.228,0.029,0.34,0.029
			c1.109,0,2.084-0.944,2.253-2.265c0.551-4.302,1.596-9.146,2.709-12.329c-0.084,0.54-0.146,1.091-0.146,1.661v7.801
			c0,0.025,0.014,0.046,0.014,0.072c0.009,7.779,0.199,14.939,0.584,21.869c0.097,1.688,1.302,2.981,2.729,2.981
			c0.061,0,0.121-0.003,0.182-0.007c1.51-0.114,2.652-1.634,2.555-3.391c-0.319-5.705-0.497-11.595-0.551-17.855
			c0.799,0.113,1.633,0.171,2.469,0.171c0.822,0,1.646-0.056,2.438-0.166c-0.057,6.285-0.232,12.188-0.553,17.889
			c-0.101,1.761,1.045,3.279,2.549,3.394c0.063,0.004,0.123,0.006,0.186,0.006c1.429,0,2.632-1.293,2.728-2.981
			c0.387-6.861,0.576-13.978,0.586-21.709c0.01-0.094,0.055-0.174,0.055-0.272v-7.801c0-0.35-0.059-0.684-0.088-1.025
			c1.063,3.237,2.066,7.768,2.662,11.757C896.149,1045.51,897.104,1046.423,898.202,1046.423z"/>
		<g>
			<ellipse cx="885.399" cy="1010.663" rx="8.668" ry="8.951"/>
		</g>
	</g>
</g>
<g id="Your_Icon_7_">
	<path d="M99.727,321.508h26.9c3.502,0,6.367,2.867,6.367,6.375v12.729c0,3.508-2.865,6.377-6.367,6.377h-4.146v8.206l-8.205-8.206
		H99.727c-3.51,0-6.371-2.869-6.371-6.377v-12.729C93.355,324.375,96.223,321.508,99.727,321.508z"/>
	<path d="M137.395,364.809c-5.076,0-9.194-4.117-9.194-9.192c0-5.083,4.118-9.201,9.194-9.201c5.084,0,9.201,4.119,9.201,9.201
		C146.596,360.69,142.48,364.809,137.395,364.809z"/>
	<path d="M121.729,397.162c0-2.232,0-14.705,0-18.027c0-6.498,4.537-11.778,10.07-11.778c2.748,0,8.123,0,10.797,0
		c5.533,0,10.471,5.282,10.471,11.778c0,3.322,0,15.797,0,18.027H121.729z"/>
	<path d="M118.791,369.486l-22.979-0.06l-2.229,5.416c-2.434-2.244-5.506-3.594-8.729-3.594c-3.557,0-10.703,0-14.357,0
		c-7.355,0-13.391,7.027-13.391,15.666c0,4.418,0,21.002,0,23.973h41.672c0-1.362,0-5.606,0-10.223l7.18,0.018L118.791,369.486z
		 M107.43,392.029l-8.65-0.021c0-0.24,0-0.477,0-0.705l8.939,0.021L107.43,392.029z M108.574,389.246l-9.795-0.027
		c0-0.244,0-0.479,0-0.705l10.086,0.027L108.574,389.246z M109.719,386.461l-10.951-0.027c-0.008-0.235-0.02-0.473-0.035-0.705
		l11.277,0.029L109.719,386.461z M110.863,383.678l-12.406-0.03c-0.047-0.236-0.098-0.476-0.154-0.705l12.851,0.03L110.863,383.678z
		 M112.01,380.895l-14.359-0.036c-0.092-0.238-0.189-0.476-0.293-0.707l14.941,0.039L112.01,380.895z M113.154,378.111
		l-16.904-0.045c-0.15-0.24-0.309-0.478-0.471-0.707l17.667,0.047L113.154,378.111z M96.932,371.789l18.802,0.047l-0.291,0.705
		l-18.802-0.049L96.932,371.789z M95.785,374.572l18.805,0.049l-0.291,0.703l-18.803-0.047L95.785,374.572z M98.779,394.088
		l7.793,0.021l-0.289,0.703l-7.504-0.021C98.779,394.557,98.779,394.322,98.779,394.088z"/>
	<path d="M78.063,368.039c6.764,0,12.236-5.479,12.236-12.229c0-6.759-5.477-12.233-12.236-12.233
		c-6.75,0-12.227,5.476-12.227,12.233C65.836,362.562,71.313,368.039,78.063,368.039z"/>
</g>
<g>
	<rect x="58.728" y="459.07" fill="none" width="126" height="72"/>
	<text transform="matrix(1 0 0 1 58.7285 477.0938)" fill="#545E64" font-family="'Lato-Regular'" font-size="21">Expert </text>
	<text transform="matrix(1 0 0 1 58.7285 502.293)" fill="#545E64" font-family="'Lato-Regular'" font-size="21">interviews</text>
</g>
<g>
	<path fill="#555555" d="M384.072,1.705v100h80v-100H384.072z M461.072,95.705h-74v-91h74V95.705z"/>
	<rect x="393.908" y="67.402" fill="#555555" width="29.014" height="2.169"/>
	<rect x="393.908" y="59.518" fill="#555555" width="29.014" height="2.17"/>
	<rect x="393.908" y="75.286" fill="#555555" width="29.014" height="2.169"/>
	<rect x="393.908" y="83.169" fill="#555555" width="29.014" height="2.169"/>
	<rect x="393.908" y="8.98" fill="#555555" width="47.195" height="3.528"/>
	<polygon fill="#555555" points="452.072,84.705 452.072,51.705 447.072,51.705 447.072,84.705 444.072,84.705 444.072,24.705 
		437.072,24.705 437.072,84.705 431.072,84.705 431.072,85.705 458.072,85.705 458.072,84.705 	"/>
	<g>
		<path fill="#555555" d="M408.5,39.611l3.523-13.327c-1.127-0.297-2.306-0.471-3.523-0.471c-7.621,0-13.799,6.178-13.799,13.799
			S400.879,53.41,408.5,53.41s13.797-6.178,13.797-13.798c0-2.244-0.547-4.356-1.498-6.229L408.5,39.611z"/>
		<path fill="#555555" d="M424.471,28.821c-1.76-3.469-4.938-6.085-8.776-7.098l-3.523,13.327L424.471,28.821z"/>
	</g>
</g>
<g>
	<rect x="2577.051" y="-192.898" fill="none" width="126" height="72"/>
	<text transform="matrix(1 0 0 1 2577.0508 -174.875)" fill="#545E64" font-family="'Lato-Regular'" font-size="21">Domain </text>
	<text transform="matrix(1 0 0 1 2577.0508 -149.6748)" fill="#545E64" font-family="'Lato-Regular'" font-size="21">analysis</text>
</g>
<g>
	<path d="M1586.099-29.117c0,4.784-2.95,9.413-7.577,10.935c-5.117,1.685-10.564-1.011-12.841-5.785
		c-1.159-2.432-1.223-4.992-1.062-7.625c0.182-2.984,0.537-5.963,1.014-8.917c0.496-3.072,1.113-6.151,2.076-9.115
		c0.736-2.27,1.771-5.69,4.086-6.845c2.271-1.262,4.769,1.125,5.519,3.121c-1.105-0.967-1.707-1.674-3.22-2.006
		c-1.67-0.365-2.764,1.044-3.258,2.527v0.011c-1.654,3.881-2.207,8.549-2.309,12.738c-0.084,3.485,2.955,7.427,6.803,6.657
		c-0.309,0.947-0.547,1.958-0.959,2.866c-0.361,0.832-0.732,1.818-0.348,2.711c0.577,1.336,2.565,1.793,3.819,1.282
		c0.767-0.256,1.385-0.819,1.703-1.598l4.549-10.747C1585.341-34.879,1586.099-31.194,1586.099-29.117z"/>
	<circle cx="1548.288" cy="-64.798" r="6.923"/>
	<path d="M1558.271-49.354c-1.396,0-2.53,1.132-2.53,2.53c0,0.584,0.207,1.114,0.539,1.542c-0.025,0.095-0.056,0.188-0.072,0.288
		l-0.851,4.867l-3.077-0.271v-10.287c0-3.236-2.621-5.858-5.857-5.858c-3.053,0-5.562,2.338-5.83,5.321l-4.424,11.095
		c-0.437,1.093,0.271,2.401,1.578,2.922c0.324,0.13,2.815,0.588,2.815,0.588v11.494c0,1.433,0.519,2.743,1.371,3.762l1.293,36.444
		c0,1.619,1.312,2.93,2.929,2.93c1.618,0,2.93-1.311,2.93-2.93l2.66-37.771c0.342-0.741,0.535-1.565,0.535-2.436V-35.59l2.252,0.197
		l-0.109,0.632c-0.11,0.633,0.291,1.229,0.892,1.359c0.602,0.13,1.213-0.248,1.373-0.87l0.248-0.955
		c1.207-0.104,2.192-0.993,2.295-2.158c0.08-0.905-0.402-1.732-1.166-2.207l1.227-4.739c0.016-0.067,0.021-0.134,0.035-0.201
		c0.869-0.4,1.477-1.274,1.477-2.294C1560.802-48.222,1559.669-49.354,1558.271-49.354z"/>
	<circle cx="1570.122" cy="-65.064" r="6.923"/>
	<path d="M1575.319-16.603c0.329,0,0.649-0.011,0.969-0.043l-1.107,31.463c0,1.619-1.311,2.93-2.93,2.93s-2.931-1.311-2.931-2.93
		l-2.479-35.19C1568.991-18.052,1571.997-16.603,1575.319-16.603z"/>
	<path d="M1570.142-56.511c-1.725,1.736-3.034,4.931-4.014,8.562v-3.004C1566.128-53.55,1567.811-55.744,1570.142-56.511z"/>
	<path d="M1583.817-43.411l-5.976-7.381c0.267-2.024-3.697-3.774-4.504-3.621c-1.33,0.251-2.365,4.559-2.428,4.825v0.011l0.01,0.011
		c-0.201,0.778-0.799,3.142-0.959,5.091c-0.021,0.258-0.373,3.11-0.373,4.633c0,2.982,2.258,5.4,5.027,5.4
		c0.147,0,1.363,0,2.354-0.628c0,0-1.197,3.515-1.522,4.708c-0.267,0.98-0.799,2.045,0.17,2.663c0.299,0.19,1.184,0.267,1.692,0.202
		c0.709-0.088,1.066-0.555,1.259-1.076l4.547-10.747c0,0,1.022-2.151,1.076-2.535C1584.288-42.42,1584.171-42.974,1583.817-43.411z
		 M1577.843-37.734v-4.963l1.15,1.417L1577.843-37.734z"/>
</g>
<g>
	<rect x="1514.881" y="105.904" fill="none" width="126" height="72"/>
	<text transform="matrix(1 0 0 1 1514.8809 123.9258)" fill="#545E64" font-family="'Lato-Regular'" font-size="21">Guerilla </text>
	<text transform="matrix(1 0 0 1 1514.8809 149.127)" fill="#545E64" font-family="'Lato-Regular'" font-size="21">interviews</text>
</g>
</svg>
